<svg width="13" height="12" viewBox="0 0 13 12" fill="none" xmlns="http://www.w3.org/2000/svg">
<path d="M5.10134 7.40524C6.17791 8.48058 7.43162 9.50147 7.92221 8.99783C8.63083 8.29001 9.0533 7.67748 10.6205 8.91616C12.174 10.1548 10.9884 10.9988 10.307 11.6794C9.51662 12.4689 6.58673 11.7338 3.67046 8.8481C0.754189 5.96238 0.00468806 3.03582 0.781451 2.24633C1.46282 1.56573 2.29409 0.367886 3.54782 1.91964C4.80154 3.4714 4.18829 3.90698 3.49329 4.60119C2.98908 5.10483 4.02477 6.34351 5.10134 7.40524ZM6.66849 2.30078C6.66849 2.30078 6.34144 2.24632 6.10978 2.47773C5.87811 2.70913 5.86448 3.11749 6.10978 3.3625C6.25968 3.51223 6.46408 3.53946 6.46408 3.53946C6.85928 3.60752 7.4725 3.74364 8.11299 4.3834C8.75348 5.02316 8.88977 5.63569 8.9579 6.03044C8.9579 6.03044 8.98515 6.23462 9.13505 6.38435C9.38034 6.62936 9.78918 6.61575 10.0208 6.38435C10.2525 6.15295 10.198 5.82627 10.198 5.82627C10.0754 5.00955 9.68016 4.16561 8.99878 3.48501C8.33104 2.83164 7.4725 2.43689 6.66849 2.30078ZM9.72104 2.7908C10.9066 3.97504 11.3972 5.30901 11.2337 6.39796C11.2337 6.39796 11.1792 6.73826 11.3972 6.96966C11.6425 7.21468 12.0513 7.20106 12.283 6.96966C12.4329 6.81993 12.4738 6.57491 12.4738 6.57491C12.6101 5.63569 12.4329 3.75725 10.5932 1.91964C8.75349 0.0820354 6.85928 -0.0813038 5.93261 0.0412034C5.93261 0.0412034 5.68731 0.0684263 5.53741 0.231769C5.30574 0.463172 5.29211 0.871521 5.53741 1.11654C5.75545 1.33433 6.10978 1.27988 6.10978 1.27988C7.19997 1.11654 8.53545 1.60657 9.72104 2.7908Z" fill="white"/>
</svg>
