<svg width="25" height="25" viewBox="0 0 25 25" fill="none" xmlns="http://www.w3.org/2000/svg">
<path d="M12.7642 24.0644C9.54808 24.0644 6.53642 22.8121 4.26063 20.5525C1.98485 18.2793 0.744751 15.2711 0.744751 12.0587C0.744751 8.84628 1.99848 5.82445 4.26063 3.56487C6.52279 1.3053 9.54808 0.0529785 12.7642 0.0529785C15.9802 0.0529785 18.9919 1.3053 21.2677 3.56487C23.5435 5.82445 24.7972 8.84628 24.7972 12.0587C24.7972 15.2711 23.5435 18.2793 21.2677 20.5525C18.9919 22.8121 15.9666 24.0644 12.7642 24.0644ZM12.7642 1.53667C6.95887 1.53667 2.24377 6.24639 2.24377 12.0451C2.24377 17.8437 6.9725 22.5535 12.7642 22.5535C18.5695 22.5535 23.2846 17.8437 23.2846 12.0451C23.2846 6.24639 18.5558 1.53667 12.7642 1.53667Z" fill="#E62A29"/>
<path d="M12.7641 11.2964C11.7284 11.2964 10.8835 10.4525 10.8835 9.41797C10.8835 8.38347 11.7284 7.53952 12.7641 7.53952C13.7998 7.53952 14.6447 8.38347 14.6447 9.41797C14.6447 9.83994 14.9854 10.1666 15.3942 10.1666C15.8031 10.1666 16.1437 9.82633 16.1437 9.41797C16.1437 7.81177 15.0127 6.46417 13.5136 6.12387V5.29356C13.5136 4.8852 13.173 4.54492 12.7641 4.54492C12.3417 4.54492 12.0146 4.8852 12.0146 5.29356V6.12387C10.5156 6.46417 9.38452 7.81177 9.38452 9.41797C9.38452 11.2828 10.8972 12.7937 12.7641 12.7937C13.7998 12.7937 14.6447 13.6377 14.6447 14.6722C14.6447 15.7067 13.7998 16.5506 12.7641 16.5506C11.7284 16.5506 10.8835 15.7067 10.8835 14.6722C10.8835 14.2638 10.5429 13.9235 10.134 13.9235C9.72521 13.9235 9.38452 14.2638 9.38452 14.6722C9.38452 16.2784 10.5156 17.626 12.0146 17.9663V18.8102C12.0146 19.2186 12.3553 19.5589 12.7641 19.5589C13.173 19.5589 13.5136 19.2186 13.5136 18.8102V17.9663C15.0127 17.626 16.1437 16.2784 16.1437 14.6722C16.1437 12.8073 14.6175 11.2964 12.7641 11.2964Z" fill="#E62A29"/>
</svg>
