<?xml version="1.0" encoding="iso-8859-1"?>
<!-- Generator: Adobe Illustrator 19.0.0, SVG Export Plug-In . SVG Version: 6.00 Build 0)  -->
<svg version="1.1" id="Capa_1" xmlns="http://www.w3.org/2000/svg" xmlns:xlink="http://www.w3.org/1999/xlink" x="0px" y="0px"
	 viewBox="0 0 480 480" style="enable-background:new 0 0 480 480;" xml:space="preserve">
<g>
	<g>
		<path d="M407.896,306.12c-8.4,7.752-15.048,13.88-29.256,13.88s-20.856-6.128-29.256-13.88
			c-9.216-8.496-19.648-18.12-40.112-18.12c-20.456,0-30.888,9.632-40.088,18.12c-8.4,7.752-15.032,13.88-29.232,13.88
			c-14.208,0-20.84-6.128-29.248-13.88c-9.2-8.488-19.632-18.12-40.088-18.12s-30.888,9.632-40.088,18.12
			c-8.4,7.752-15.032,13.88-29.232,13.88c-14.192,0-20.824-6.128-29.216-13.88C62.88,297.632,52.456,288,32,288v16
			c14.192,0,20.824,6.128,29.216,13.88c9.2,8.496,19.624,18.12,40.08,18.12s30.88-9.632,40.08-18.12
			c8.4-7.752,15.032-13.88,29.24-13.88s20.84,6.128,29.24,13.88c9.2,8.488,19.632,18.12,40.096,18.12
			c20.456,0,30.88-9.632,40.08-18.12c8.4-7.752,15.032-13.88,29.24-13.88c14.216,0,20.856,6.128,29.256,13.88
			c9.208,8.496,19.64,18.12,40.112,18.12c20.472,0,30.904-9.632,40.112-18.12c8.4-7.752,15.04-13.88,29.248-13.88v-16
			C427.536,288,417.104,297.624,407.896,306.12z"/>
	</g>
</g>
<g>
	<g>
		<path d="M407.896,378.12c-8.4,7.752-15.048,13.88-29.256,13.88s-20.856-6.128-29.256-13.88
			c-9.216-8.496-19.648-18.12-40.112-18.12c-20.456,0-30.888,9.632-40.088,18.12c-8.4,7.752-15.032,13.88-29.232,13.88
			c-14.208,0-20.84-6.128-29.248-13.88c-9.2-8.488-19.632-18.12-40.088-18.12s-30.888,9.632-40.088,18.12
			c-8.4,7.752-15.032,13.88-29.232,13.88c-14.192,0-20.824-6.128-29.216-13.88C62.88,369.632,52.456,360,32,360v16
			c14.192,0,20.824,6.128,29.216,13.88c9.2,8.496,19.624,18.12,40.08,18.12s30.88-9.632,40.08-18.12
			c8.4-7.752,15.032-13.88,29.24-13.88s20.84,6.128,29.24,13.88c9.2,8.488,19.632,18.12,40.096,18.12
			c20.456,0,30.88-9.632,40.08-18.12c8.4-7.752,15.032-13.88,29.24-13.88c14.216,0,20.856,6.128,29.256,13.88
			c9.208,8.496,19.64,18.12,40.112,18.12c20.472,0,30.904-9.632,40.112-18.12c8.4-7.752,15.04-13.88,29.248-13.88v-16
			C427.536,360,417.104,369.624,407.896,378.12z"/>
	</g>
</g>
<g>
	<g>
		<path d="M407.896,450.12c-8.4,7.752-15.048,13.88-29.256,13.88s-20.856-6.128-29.256-13.88
			c-9.216-8.496-19.648-18.12-40.112-18.12c-20.456,0-30.888,9.632-40.088,18.12c-8.4,7.752-15.032,13.88-29.232,13.88
			c-14.208,0-20.84-6.128-29.248-13.88c-9.2-8.488-19.632-18.12-40.088-18.12s-30.888,9.632-40.088,18.12
			c-8.4,7.752-15.032,13.88-29.232,13.88c-14.192,0-20.824-6.128-29.216-13.88C62.88,441.632,52.456,432,32,432v16
			c14.192,0,20.824,6.128,29.216,13.88c9.2,8.496,19.624,18.12,40.08,18.12s30.88-9.632,40.08-18.12
			c8.4-7.752,15.032-13.88,29.24-13.88s20.84,6.128,29.24,13.88c9.2,8.488,19.632,18.12,40.096,18.12
			c20.456,0,30.88-9.632,40.08-18.12c8.4-7.752,15.032-13.88,29.24-13.88c14.216,0,20.856,6.128,29.256,13.88
			c9.208,8.496,19.64,18.12,40.112,18.12c20.472,0,30.904-9.632,40.112-18.12c8.4-7.752,15.04-13.88,29.248-13.88v-16
			C427.536,432,417.104,441.624,407.896,450.12z"/>
	</g>
</g>
<g>
	<g>
		<path d="M390.24,72.952C376.032,30.384,327.304,0,272,0c-51.352,0-94.752,28.784-109.92,72.216
			c-32.712,2.032-60.192,17.392-71.312,39.736c-0.12,0-0.24,0.008-0.36,0.008L88,112c-48.52,0-88,35.888-88,80s39.48,80,88,80
			h280.272C428.832,269.928,480,222.304,480,168C480,121.504,443.344,83.016,390.24,72.952z M368,256H88c-39.696,0-72-28.712-72-64
			c0-35.288,32.304-64,72-64l2.768-0.04c0.872-0.016,1.768-0.04,2.632-0.04c0.696,0,1.376,0.016,2,0.064
			c3.56,0.24,6.888-1.872,8.112-5.24c7.304-20.04,33.864-34.328,64.592-34.736c3.536-0.048,6.616-2.408,7.584-5.808
			C187,42.6,225.696,16,272,16c49.496,0,94.32,28.392,104.264,66.04c0.816,3.08,3.376,5.384,6.528,5.864
			C430.608,95.208,464,128.144,464,168C464,213.92,419.912,254.224,368,256z"/>
	</g>
</g>
<g>
</g>
<g>
</g>
<g>
</g>
<g>
</g>
<g>
</g>
<g>
</g>
<g>
</g>
<g>
</g>
<g>
</g>
<g>
</g>
<g>
</g>
<g>
</g>
<g>
</g>
<g>
</g>
<g>
</g>
</svg>
