<svg width="68" height="68" viewBox="0 0 68 68" fill="none" xmlns="http://www.w3.org/2000/svg">
<path d="M24.4339 20.8289H22.0217V23.2382H24.4339V20.8289Z" fill="white"/>
<path d="M14.7994 20.8289H12.3872V23.2382H14.7994V20.8289Z" fill="white"/>
<path d="M25.633 13.6145H11.188C10.5202 13.6145 9.98877 14.159 9.98877 14.8124V17.2217C9.98877 17.8886 10.5339 18.4195 11.188 18.4195H25.633C26.3008 18.4195 26.8323 17.875 26.8323 17.2217V14.8124C26.8323 14.1454 26.3008 13.6145 25.633 13.6145ZM12.3872 17.2217C11.7195 17.2217 11.188 16.6772 11.188 16.0238C11.188 15.3569 11.7331 14.826 12.3872 14.826C13.055 14.826 13.5864 15.3705 13.5864 16.0238C13.5864 16.6772 13.055 17.2217 12.3872 17.2217ZM24.4339 17.2217C23.7662 17.2217 23.2347 16.6772 23.2347 16.0238C23.2347 15.3569 23.7798 14.826 24.4339 14.826C25.1016 14.826 25.633 15.3705 25.633 16.0238C25.633 16.6772 25.088 17.2217 24.4339 17.2217Z" fill="white"/>
<path d="M62.9585 1.58164C62.9585 0.91466 62.4134 0.383789 61.7593 0.383789H38.8789C36.8893 0.383789 35.2676 2.0036 35.2676 3.99094V52.1227C36.3033 51.3196 37.5706 50.8976 38.8789 50.884H62.9585V1.58164ZM46.1014 5.18879C46.1014 3.85483 47.178 2.7795 48.5135 2.7795H50.9255C52.261 2.7795 53.3375 3.85483 53.3375 5.18879V7.59813C53.3375 8.9321 52.261 10.0074 50.9255 10.0074H48.4998C47.1643 10.0074 46.0877 8.9321 46.0877 7.59813V5.18879H46.1014ZM43.6893 22.0267C43.6893 20.6928 44.7659 19.6174 46.1014 19.6174V14.8124C46.1014 13.4785 47.178 12.4031 48.5135 12.4031H50.9255C52.261 12.4031 53.3375 13.4785 53.3375 14.8124V19.6174C54.673 19.6174 55.7496 20.6928 55.7496 22.0267V24.4361C55.7496 25.77 54.673 26.8454 53.3375 26.8454H46.115C44.7795 26.8454 43.7029 25.77 43.7029 24.4361V22.0267H43.6893ZM54.5231 46.079H40.0781C39.4104 46.079 38.8789 45.5345 38.8789 44.8811C38.8789 44.2142 39.424 43.6833 40.0781 43.6833H54.5231C55.1909 43.6833 55.7223 44.2142 55.7223 44.8811C55.736 45.5481 55.1909 46.079 54.5231 46.079ZM59.3473 41.274H40.0781C39.4104 41.274 38.8789 40.7295 38.8789 40.0761C38.8789 39.4091 39.424 38.8783 40.0781 38.8783H59.3473C60.015 38.8783 60.5465 39.4228 60.5465 40.0761C60.5465 40.7295 60.0014 41.274 59.3473 41.274ZM59.3473 36.4554H40.0781C39.4104 36.4554 38.8789 35.9109 38.8789 35.2575C38.8789 34.5905 39.424 34.0597 40.0781 34.0597H59.3473C60.015 34.0597 60.5465 34.6041 60.5465 35.2575C60.5465 35.9245 60.0014 36.4554 59.3473 36.4554ZM59.3473 31.6504H40.0781C39.4104 31.6504 38.8789 31.1059 38.8789 30.4525C38.8789 29.7855 39.424 29.2547 40.0781 29.2547H59.3473C60.015 29.2547 60.5465 29.7991 60.5465 30.4525C60.5465 31.1059 60.0014 31.6504 59.3473 31.6504Z" fill="white"/>
<path d="M50.9255 5.18872H48.5134V7.59806H50.9255V5.18872Z" fill="white"/>
<path d="M35.4722 55.7026H62.9587V53.2932H38.879C37.3391 53.2932 35.9764 54.2597 35.4722 55.7026Z" fill="white"/>
<path d="M53.3242 22.0265H52.1249C51.4572 22.0265 50.9258 21.4821 50.9258 20.8287V14.8123H48.5137V20.8287C48.5137 21.4957 47.9686 22.0265 47.3145 22.0265H46.1152V24.4359H53.3378V22.0265H53.3242Z" fill="white"/>
<path d="M22.7031 8.34679C22.5259 7.89759 22.0762 7.59814 21.5856 7.59814H15.208C14.7174 7.59814 14.2677 7.89759 14.0905 8.34679C12.8641 11.4095 13.0548 10.9331 12.9458 11.1917H23.8342L22.7031 8.34679Z" fill="white"/>
<path d="M5.16455 53.2932V55.7026H32.6511C32.1333 54.2597 30.7705 53.2932 29.2442 53.2932H5.16455Z" fill="white"/>
<path d="M1.55348 60.5076H23.848C25.8785 60.494 27.6909 61.7736 28.3723 63.6928C29.2036 66.1158 31.493 67.7356 34.055 67.7356C36.617 67.7356 38.9063 66.1158 39.7376 63.6928C40.4054 61.7736 42.2314 60.5076 44.2619 60.5076H66.5564C67.2242 60.5076 67.7556 59.9632 67.7556 59.3098V8.796C67.7556 8.12902 67.2105 7.59814 66.5564 7.59814H65.3572V55.7026C65.3572 57.0366 64.2806 58.1119 62.9451 58.1119H5.16478C3.82929 58.1119 2.7527 57.0366 2.7527 55.7026V7.59814H1.55348C0.885731 7.59814 0.354254 8.14263 0.354254 8.796V59.3098C0.340627 59.9768 0.885731 60.5076 1.55348 60.5076Z" fill="white"/>
<path d="M32.8555 3.99094C32.8555 2.0036 31.2338 0.383789 29.2442 0.383789H6.36377C5.69603 0.383789 5.16455 0.928272 5.16455 1.58164V50.884H29.2442C30.5524 50.884 31.8198 51.3196 32.8555 52.1227V3.99094ZM23.2209 46.079H8.77577C8.10803 46.079 7.57655 45.5481 7.57655 44.8811C7.57655 44.2142 8.12166 43.6833 8.77577 43.6833H23.2209C23.8887 43.6833 24.4201 44.2278 24.4201 44.8811C24.4201 45.5345 23.8887 46.079 23.2209 46.079ZM28.045 41.274H8.77577C8.10803 41.274 7.57655 40.7431 7.57655 40.0761C7.57655 39.4092 8.12166 38.8783 8.77577 38.8783H28.045C28.7127 38.8783 29.2442 39.4228 29.2442 40.0761C29.2442 40.7295 28.6991 41.274 28.045 41.274ZM28.045 36.4554H8.77577C8.10803 36.4554 7.57655 35.9245 7.57655 35.2575C7.57655 34.5905 8.12166 34.0597 8.77577 34.0597H28.045C28.7127 34.0597 29.2442 34.6041 29.2442 35.2575C29.2442 35.9245 28.6991 36.4554 28.045 36.4554ZM28.045 31.6504H8.77577C8.10803 31.6504 7.57655 31.1059 7.57655 30.4525C7.57655 29.7855 8.12166 29.2547 8.77577 29.2547H28.045C28.7127 29.2547 29.2442 29.7855 29.2442 30.4525C29.2442 31.1059 28.6991 31.6504 28.045 31.6504ZM29.2442 17.2217C29.2306 18.7463 28.2766 20.1075 26.8321 20.6111V23.2382C26.8321 24.5722 25.7556 25.6475 24.4201 25.6475H22.008C20.6726 25.6475 19.596 24.5722 19.596 23.2382V20.8289H17.184V23.2382C17.184 24.5722 16.1074 25.6475 14.7719 25.6475H12.3598C11.0379 25.6475 9.9478 24.5722 9.9478 23.2382V20.6111C8.51691 20.1075 7.54934 18.7463 7.53571 17.2217V14.8124C7.54934 13.1518 8.68044 11.7225 10.2885 11.3278L10.8335 9.95296C10.3021 9.81684 9.94778 9.35404 9.93416 8.80957C9.93416 8.14258 10.4793 7.61171 11.1334 7.61171H11.7602L11.8147 7.47563C12.3598 6.10082 13.6953 5.20242 15.167 5.20242H21.5311C23.0029 5.20242 24.3383 6.10081 24.8834 7.462L24.938 7.59813H25.5648C26.2325 7.59813 26.764 8.14261 26.764 8.79598C26.764 9.34046 26.3961 9.80326 25.8646 9.93938L26.4233 11.3142C28.0314 11.7089 29.1761 13.1518 29.1761 14.8124V17.2217H29.2442Z" fill="white"/>
</svg>
