<svg width="100" height="100" viewBox="0 0 100 100" fill="none" xmlns="http://www.w3.org/2000/svg">
<path d="M99.4011 0.932861H0.874512V99.3606H99.4011V0.932861Z" fill="white"/>
<path d="M21.316 4.6355H19.4626V6.48665H21.316V4.6355Z" fill="black"/>
<path d="M23.1692 4.6355H21.3159V6.48665H23.1692V4.6355Z" fill="black"/>
<path d="M25.0364 4.6355H23.1829V6.48665H25.0364V4.6355Z" fill="black"/>
<path d="M38.0503 4.6355H36.197V6.48665H38.0503V4.6355Z" fill="black"/>
<path d="M43.6241 4.6355H41.7708V6.48665H43.6241V4.6355Z" fill="black"/>
<path d="M45.491 4.6355H43.6377V6.48665H45.491V4.6355Z" fill="black"/>
<path d="M49.1977 4.6355H47.3445V6.48665H49.1977V4.6355Z" fill="black"/>
<path d="M51.0647 4.6355H49.2114V6.48665H51.0647V4.6355Z" fill="black"/>
<path d="M58.505 4.6355H56.6516V6.48665H58.505V4.6355Z" fill="black"/>
<path d="M60.3587 4.6355H58.5054V6.48665H60.3587V4.6355Z" fill="black"/>
<path d="M64.0789 4.6355H62.2256V6.48665H64.0789V4.6355Z" fill="black"/>
<path d="M67.7993 4.6355H65.9458V6.48665H67.7993V4.6355Z" fill="black"/>
<path d="M69.6524 4.6355H67.7991V6.48665H69.6524V4.6355Z" fill="black"/>
<path d="M80.8133 4.6355H78.96V6.48665H80.8133V4.6355Z" fill="black"/>
<path d="M30.6097 6.50024H28.7563V8.35146H30.6097V6.50024Z" fill="black"/>
<path d="M32.4768 6.50024H30.6235V8.35146H32.4768V6.50024Z" fill="black"/>
<path d="M34.3299 6.50024H32.4766V8.35146H34.3299V6.50024Z" fill="black"/>
<path d="M39.9035 6.50024H38.0503V8.35146H39.9035V6.50024Z" fill="black"/>
<path d="M41.7705 6.50024H39.9172V8.35146H41.7705V6.50024Z" fill="black"/>
<path d="M43.6241 6.50024H41.7708V8.35146H43.6241V6.50024Z" fill="black"/>
<path d="M45.491 6.50024H43.6377V8.35146H45.491V6.50024Z" fill="black"/>
<path d="M47.3442 6.50024H45.4907V8.35146H47.3442V6.50024Z" fill="black"/>
<path d="M49.1977 6.50024H47.3445V8.35146H49.1977V6.50024Z" fill="black"/>
<path d="M51.0647 6.50024H49.2114V8.35146H51.0647V6.50024Z" fill="black"/>
<path d="M52.9179 6.50024H51.0647V8.35146H52.9179V6.50024Z" fill="black"/>
<path d="M54.785 6.50024H52.9316V8.35146H54.785V6.50024Z" fill="black"/>
<path d="M56.6385 6.50024H54.7852V8.35146H56.6385V6.50024Z" fill="black"/>
<path d="M58.505 6.50024H56.6516V8.35146H58.505V6.50024Z" fill="black"/>
<path d="M62.2116 6.50024H60.3584V8.35146H62.2116V6.50024Z" fill="black"/>
<path d="M71.5196 6.50024H69.6663V8.35146H71.5196V6.50024Z" fill="black"/>
<path d="M77.0931 6.50024H75.2397V8.35146H77.0931V6.50024Z" fill="black"/>
<path d="M78.9461 6.50024H77.0928V8.35146H78.9461V6.50024Z" fill="black"/>
<path d="M80.8133 6.50024H78.96V8.35146H80.8133V6.50024Z" fill="black"/>
<path d="M23.1692 8.35156H21.3159V10.2028H23.1692V8.35156Z" fill="black"/>
<path d="M25.0364 8.35156H23.1829V10.2028H25.0364V8.35156Z" fill="black"/>
<path d="M28.7566 8.35156H26.9033V10.2028H28.7566V8.35156Z" fill="black"/>
<path d="M32.4768 8.35156H30.6235V10.2028H32.4768V8.35156Z" fill="black"/>
<path d="M38.0503 8.35156H36.197V10.2028H38.0503V8.35156Z" fill="black"/>
<path d="M41.7705 8.35156H39.9172V10.2028H41.7705V8.35156Z" fill="black"/>
<path d="M45.491 8.35156H43.6377V10.2028H45.491V8.35156Z" fill="black"/>
<path d="M47.3442 8.35156H45.4907V10.2028H47.3442V8.35156Z" fill="black"/>
<path d="M49.1977 8.35156H47.3445V10.2028H49.1977V8.35156Z" fill="black"/>
<path d="M67.7993 8.35156H65.9458V10.2028H67.7993V8.35156Z" fill="black"/>
<path d="M69.6524 8.35156H67.7991V10.2028H69.6524V8.35156Z" fill="black"/>
<path d="M78.9461 8.35156H77.0928V10.2028H78.9461V8.35156Z" fill="black"/>
<path d="M80.8133 8.35156H78.96V10.2028H80.8133V8.35156Z" fill="black"/>
<path d="M21.316 10.2163H19.4626V12.0675H21.316V10.2163Z" fill="black"/>
<path d="M25.0364 10.2163H23.1829V12.0675H25.0364V10.2163Z" fill="black"/>
<path d="M26.8894 10.2163H25.0361V12.0675H26.8894V10.2163Z" fill="black"/>
<path d="M32.4768 10.2163H30.6235V12.0675H32.4768V10.2163Z" fill="black"/>
<path d="M45.491 10.2163H43.6377V12.0675H45.491V10.2163Z" fill="black"/>
<path d="M51.0647 10.2163H49.2114V12.0675H51.0647V10.2163Z" fill="black"/>
<path d="M54.785 10.2163H52.9316V12.0675H54.785V10.2163Z" fill="black"/>
<path d="M58.505 10.2163H56.6516V12.0675H58.505V10.2163Z" fill="black"/>
<path d="M62.2116 10.2163H60.3584V12.0675H62.2116V10.2163Z" fill="black"/>
<path d="M64.0789 10.2163H62.2256V12.0675H64.0789V10.2163Z" fill="black"/>
<path d="M67.7993 10.2163H65.9458V12.0675H67.7993V10.2163Z" fill="black"/>
<path d="M69.6524 10.2163H67.7991V12.0675H69.6524V10.2163Z" fill="black"/>
<path d="M75.2261 10.2163H73.3728V12.0675H75.2261V10.2163Z" fill="black"/>
<path d="M78.9461 10.2163H77.0928V12.0675H78.9461V10.2163Z" fill="black"/>
<path d="M21.316 12.0676H19.4626V13.9189H21.316V12.0676Z" fill="black"/>
<path d="M26.8894 12.0676H25.0361V13.9189H26.8894V12.0676Z" fill="black"/>
<path d="M28.7566 12.0676H26.9033V13.9189H28.7566V12.0676Z" fill="black"/>
<path d="M30.6097 12.0676H28.7563V13.9189H30.6097V12.0676Z" fill="black"/>
<path d="M32.4768 12.0676H30.6235V13.9189H32.4768V12.0676Z" fill="black"/>
<path d="M34.3299 12.0676H32.4766V13.9189H34.3299V12.0676Z" fill="black"/>
<path d="M36.1833 12.0676H34.3301V13.9189H36.1833V12.0676Z" fill="black"/>
<path d="M47.3442 12.0676H45.4907V13.9189H47.3442V12.0676Z" fill="black"/>
<path d="M49.1977 12.0676H47.3445V13.9189H49.1977V12.0676Z" fill="black"/>
<path d="M51.0647 12.0676H49.2114V13.9189H51.0647V12.0676Z" fill="black"/>
<path d="M52.9179 12.0676H51.0647V13.9189H52.9179V12.0676Z" fill="black"/>
<path d="M54.785 12.0676H52.9316V13.9189H54.785V12.0676Z" fill="black"/>
<path d="M56.6385 12.0676H54.7852V13.9189H56.6385V12.0676Z" fill="black"/>
<path d="M60.3587 12.0676H58.5054V13.9189H60.3587V12.0676Z" fill="black"/>
<path d="M62.2116 12.0676H60.3584V13.9189H62.2116V12.0676Z" fill="black"/>
<path d="M64.0789 12.0676H62.2256V13.9189H64.0789V12.0676Z" fill="black"/>
<path d="M65.9322 12.0676H64.0789V13.9189H65.9322V12.0676Z" fill="black"/>
<path d="M71.5196 12.0676H69.6663V13.9189H71.5196V12.0676Z" fill="black"/>
<path d="M73.3729 12.0676H71.5195V13.9189H73.3729V12.0676Z" fill="black"/>
<path d="M21.316 13.9324H19.4626V15.7837H21.316V13.9324Z" fill="black"/>
<path d="M25.0364 13.9324H23.1829V15.7837H25.0364V13.9324Z" fill="black"/>
<path d="M26.8894 13.9324H25.0361V15.7837H26.8894V13.9324Z" fill="black"/>
<path d="M28.7566 13.9324H26.9033V15.7837H28.7566V13.9324Z" fill="black"/>
<path d="M36.1833 13.9324H34.3301V15.7837H36.1833V13.9324Z" fill="black"/>
<path d="M41.7705 13.9324H39.9172V15.7837H41.7705V13.9324Z" fill="black"/>
<path d="M45.491 13.9324H43.6377V15.7837H45.491V13.9324Z" fill="black"/>
<path d="M47.3442 13.9324H45.4907V15.7837H47.3442V13.9324Z" fill="black"/>
<path d="M54.785 13.9324H52.9316V15.7837H54.785V13.9324Z" fill="black"/>
<path d="M56.6385 13.9324H54.7852V15.7837H56.6385V13.9324Z" fill="black"/>
<path d="M60.3587 13.9324H58.5054V15.7837H60.3587V13.9324Z" fill="black"/>
<path d="M65.9322 13.9324H64.0789V15.7837H65.9322V13.9324Z" fill="black"/>
<path d="M69.6524 13.9324H67.7991V15.7837H69.6524V13.9324Z" fill="black"/>
<path d="M73.3729 13.9324H71.5195V15.7837H73.3729V13.9324Z" fill="black"/>
<path d="M77.0931 13.9324H75.2397V15.7837H77.0931V13.9324Z" fill="black"/>
<path d="M21.316 15.7837H19.4626V17.6348H21.316V15.7837Z" fill="black"/>
<path d="M25.0364 15.7837H23.1829V17.6348H25.0364V15.7837Z" fill="black"/>
<path d="M28.7566 15.7837H26.9033V17.6348H28.7566V15.7837Z" fill="black"/>
<path d="M32.4768 15.7837H30.6235V17.6348H32.4768V15.7837Z" fill="black"/>
<path d="M36.1833 15.7837H34.3301V17.6348H36.1833V15.7837Z" fill="black"/>
<path d="M39.9035 15.7837H38.0503V17.6348H39.9035V15.7837Z" fill="black"/>
<path d="M43.6241 15.7837H41.7708V17.6348H43.6241V15.7837Z" fill="black"/>
<path d="M47.3442 15.7837H45.4907V17.6348H47.3442V15.7837Z" fill="black"/>
<path d="M51.0647 15.7837H49.2114V17.6348H51.0647V15.7837Z" fill="black"/>
<path d="M54.785 15.7837H52.9316V17.6348H54.785V15.7837Z" fill="black"/>
<path d="M58.505 15.7837H56.6516V17.6348H58.505V15.7837Z" fill="black"/>
<path d="M62.2116 15.7837H60.3584V17.6348H62.2116V15.7837Z" fill="black"/>
<path d="M65.9322 15.7837H64.0789V17.6348H65.9322V15.7837Z" fill="black"/>
<path d="M69.6524 15.7837H67.7991V17.6348H69.6524V15.7837Z" fill="black"/>
<path d="M73.3729 15.7837H71.5195V17.6348H73.3729V15.7837Z" fill="black"/>
<path d="M77.0931 15.7837H75.2397V17.6348H77.0931V15.7837Z" fill="black"/>
<path d="M80.8133 15.7837H78.96V17.6348H80.8133V15.7837Z" fill="black"/>
<path d="M21.316 17.6348H19.4626V19.486H21.316V17.6348Z" fill="black"/>
<path d="M23.1692 17.6348H21.3159V19.486H23.1692V17.6348Z" fill="black"/>
<path d="M25.0364 17.6348H23.1829V19.486H25.0364V17.6348Z" fill="black"/>
<path d="M28.7566 17.6348H26.9033V19.486H28.7566V17.6348Z" fill="black"/>
<path d="M39.9035 17.6348H38.0503V19.486H39.9035V17.6348Z" fill="black"/>
<path d="M41.7705 17.6348H39.9172V19.486H41.7705V17.6348Z" fill="black"/>
<path d="M43.6241 17.6348H41.7708V19.486H43.6241V17.6348Z" fill="black"/>
<path d="M47.3442 17.6348H45.4907V19.486H47.3442V17.6348Z" fill="black"/>
<path d="M54.785 17.6348H52.9316V19.486H54.785V17.6348Z" fill="black"/>
<path d="M65.9322 17.6348H64.0789V19.486H65.9322V17.6348Z" fill="black"/>
<path d="M71.5196 17.6348H69.6663V19.486H71.5196V17.6348Z" fill="black"/>
<path d="M75.2261 17.6348H73.3728V19.486H75.2261V17.6348Z" fill="black"/>
<path d="M80.8133 17.6348H78.96V19.486H80.8133V17.6348Z" fill="black"/>
<path d="M6.44859 19.4995H4.59521V21.3507H6.44859V19.4995Z" fill="black"/>
<path d="M13.8752 19.4995H12.0217V21.3507H13.8752V19.4995Z" fill="black"/>
<path d="M17.5955 19.4995H15.7422V21.3507H17.5955V19.4995Z" fill="black"/>
<path d="M19.4624 19.4995H17.6091V21.3507H19.4624V19.4995Z" fill="black"/>
<path d="M21.316 19.4995H19.4626V21.3507H21.316V19.4995Z" fill="black"/>
<path d="M23.1692 19.4995H21.3159V21.3507H23.1692V19.4995Z" fill="black"/>
<path d="M30.6097 19.4995H28.7563V21.3507H30.6097V19.4995Z" fill="black"/>
<path d="M32.4768 19.4995H30.6235V21.3507H32.4768V19.4995Z" fill="black"/>
<path d="M34.3299 19.4995H32.4766V21.3507H34.3299V19.4995Z" fill="black"/>
<path d="M36.1833 19.4995H34.3301V21.3507H36.1833V19.4995Z" fill="black"/>
<path d="M38.0503 19.4995H36.197V21.3507H38.0503V19.4995Z" fill="black"/>
<path d="M39.9035 19.4995H38.0503V21.3507H39.9035V19.4995Z" fill="black"/>
<path d="M47.3442 19.4995H45.4907V21.3507H47.3442V19.4995Z" fill="black"/>
<path d="M49.1977 19.4995H47.3445V21.3507H49.1977V19.4995Z" fill="black"/>
<path d="M51.0647 19.4995H49.2114V21.3507H51.0647V19.4995Z" fill="black"/>
<path d="M52.9179 19.4995H51.0647V21.3507H52.9179V19.4995Z" fill="black"/>
<path d="M54.785 19.4995H52.9316V21.3507H54.785V19.4995Z" fill="black"/>
<path d="M56.6385 19.4995H54.7852V21.3507H56.6385V19.4995Z" fill="black"/>
<path d="M60.3587 19.4995H58.5054V21.3507H60.3587V19.4995Z" fill="black"/>
<path d="M65.9322 19.4995H64.0789V21.3507H65.9322V19.4995Z" fill="black"/>
<path d="M67.7993 19.4995H65.9458V21.3507H67.7993V19.4995Z" fill="black"/>
<path d="M69.6524 19.4995H67.7991V21.3507H69.6524V19.4995Z" fill="black"/>
<path d="M71.5196 19.4995H69.6663V21.3507H71.5196V19.4995Z" fill="black"/>
<path d="M73.3729 19.4995H71.5195V21.3507H73.3729V19.4995Z" fill="black"/>
<path d="M78.9461 19.4995H77.0928V21.3507H78.9461V19.4995Z" fill="black"/>
<path d="M80.8133 19.4995H78.96V21.3507H80.8133V19.4995Z" fill="black"/>
<path d="M82.6668 19.4995H80.8135V21.3507H82.6668V19.4995Z" fill="black"/>
<path d="M84.5335 19.4995H82.6802V21.3507H84.5335V19.4995Z" fill="black"/>
<path d="M86.3869 19.4995H84.5337V21.3507H86.3869V19.4995Z" fill="black"/>
<path d="M88.2403 19.4995H86.387V21.3507H88.2403V19.4995Z" fill="black"/>
<path d="M90.1073 19.4995H88.2539V21.3507H90.1073V19.4995Z" fill="black"/>
<path d="M95.681 19.4995H93.8276V21.3507H95.681V19.4995Z" fill="black"/>
<path d="M13.8752 21.3508H12.0217V23.202H13.8752V21.3508Z" fill="black"/>
<path d="M19.4624 21.3508H17.6091V23.202H19.4624V21.3508Z" fill="black"/>
<path d="M21.316 21.3508H19.4626V23.202H21.316V21.3508Z" fill="black"/>
<path d="M25.0364 21.3508H23.1829V23.202H25.0364V21.3508Z" fill="black"/>
<path d="M26.8894 21.3508H25.0361V23.202H26.8894V21.3508Z" fill="black"/>
<path d="M28.7566 21.3508H26.9033V23.202H28.7566V21.3508Z" fill="black"/>
<path d="M32.4768 21.3508H30.6235V23.202H32.4768V21.3508Z" fill="black"/>
<path d="M36.1833 21.3508H34.3301V23.202H36.1833V21.3508Z" fill="black"/>
<path d="M39.9035 21.3508H38.0503V23.202H39.9035V21.3508Z" fill="black"/>
<path d="M43.6241 21.3508H41.7708V23.202H43.6241V21.3508Z" fill="black"/>
<path d="M54.785 21.3508H52.9316V23.202H54.785V21.3508Z" fill="black"/>
<path d="M56.6385 21.3508H54.7852V23.202H56.6385V21.3508Z" fill="black"/>
<path d="M62.2116 21.3508H60.3584V23.202H62.2116V21.3508Z" fill="black"/>
<path d="M64.0789 21.3508H62.2256V23.202H64.0789V21.3508Z" fill="black"/>
<path d="M65.9322 21.3508H64.0789V23.202H65.9322V21.3508Z" fill="black"/>
<path d="M67.7993 21.3508H65.9458V23.202H67.7993V21.3508Z" fill="black"/>
<path d="M77.0931 21.3508H75.2397V23.202H77.0931V21.3508Z" fill="black"/>
<path d="M78.9461 21.3508H77.0928V23.202H78.9461V21.3508Z" fill="black"/>
<path d="M82.6668 21.3508H80.8135V23.202H82.6668V21.3508Z" fill="black"/>
<path d="M84.5335 21.3508H82.6802V23.202H84.5335V21.3508Z" fill="black"/>
<path d="M90.1073 21.3508H88.2539V23.202H90.1073V21.3508Z" fill="black"/>
<path d="M91.9605 21.3508H90.1072V23.202H91.9605V21.3508Z" fill="black"/>
<path d="M6.44859 23.2156H4.59521V25.0669H6.44859V23.2156Z" fill="black"/>
<path d="M10.155 23.2156H8.30176V25.0669H10.155V23.2156Z" fill="black"/>
<path d="M12.0218 23.2156H10.1685V25.0669H12.0218V23.2156Z" fill="black"/>
<path d="M17.5955 23.2156H15.7422V25.0669H17.5955V23.2156Z" fill="black"/>
<path d="M19.4624 23.2156H17.6091V25.0669H19.4624V23.2156Z" fill="black"/>
<path d="M21.316 23.2156H19.4626V25.0669H21.316V23.2156Z" fill="black"/>
<path d="M25.0364 23.2156H23.1829V25.0669H25.0364V23.2156Z" fill="black"/>
<path d="M26.8894 23.2156H25.0361V25.0669H26.8894V23.2156Z" fill="black"/>
<path d="M28.7566 23.2156H26.9033V25.0669H28.7566V23.2156Z" fill="black"/>
<path d="M30.6097 23.2156H28.7563V25.0669H30.6097V23.2156Z" fill="black"/>
<path d="M36.1833 23.2156H34.3301V25.0669H36.1833V23.2156Z" fill="black"/>
<path d="M38.0503 23.2156H36.197V25.0669H38.0503V23.2156Z" fill="black"/>
<path d="M39.9035 23.2156H38.0503V25.0669H39.9035V23.2156Z" fill="black"/>
<path d="M41.7705 23.2156H39.9172V25.0669H41.7705V23.2156Z" fill="black"/>
<path d="M45.491 23.2156H43.6377V25.0669H45.491V23.2156Z" fill="black"/>
<path d="M51.0647 23.2156H49.2114V25.0669H51.0647V23.2156Z" fill="black"/>
<path d="M54.785 23.2156H52.9316V25.0669H54.785V23.2156Z" fill="black"/>
<path d="M58.505 23.2156H56.6516V25.0669H58.505V23.2156Z" fill="black"/>
<path d="M62.2116 23.2156H60.3584V25.0669H62.2116V23.2156Z" fill="black"/>
<path d="M64.0789 23.2156H62.2256V25.0669H64.0789V23.2156Z" fill="black"/>
<path d="M67.7993 23.2156H65.9458V25.0669H67.7993V23.2156Z" fill="black"/>
<path d="M71.5196 23.2156H69.6663V25.0669H71.5196V23.2156Z" fill="black"/>
<path d="M73.3729 23.2156H71.5195V25.0669H73.3729V23.2156Z" fill="black"/>
<path d="M77.0931 23.2156H75.2397V25.0669H77.0931V23.2156Z" fill="black"/>
<path d="M78.9461 23.2156H77.0928V25.0669H78.9461V23.2156Z" fill="black"/>
<path d="M82.6668 23.2156H80.8135V25.0669H82.6668V23.2156Z" fill="black"/>
<path d="M84.5335 23.2156H82.6802V25.0669H84.5335V23.2156Z" fill="black"/>
<path d="M86.3869 23.2156H84.5337V25.0669H86.3869V23.2156Z" fill="black"/>
<path d="M12.0218 25.0669H10.1685V26.9181H12.0218V25.0669Z" fill="black"/>
<path d="M13.8752 25.0669H12.0217V26.9181H13.8752V25.0669Z" fill="black"/>
<path d="M15.7424 25.0669H13.8892V26.9181H15.7424V25.0669Z" fill="black"/>
<path d="M19.4624 25.0669H17.6091V26.9181H19.4624V25.0669Z" fill="black"/>
<path d="M26.8894 25.0669H25.0361V26.9181H26.8894V25.0669Z" fill="black"/>
<path d="M30.6097 25.0669H28.7563V26.9181H30.6097V25.0669Z" fill="black"/>
<path d="M32.4768 25.0669H30.6235V26.9181H32.4768V25.0669Z" fill="black"/>
<path d="M36.1833 25.0669H34.3301V26.9181H36.1833V25.0669Z" fill="black"/>
<path d="M39.9035 25.0669H38.0503V26.9181H39.9035V25.0669Z" fill="black"/>
<path d="M41.7705 25.0669H39.9172V26.9181H41.7705V25.0669Z" fill="black"/>
<path d="M47.3442 25.0669H45.4907V26.9181H47.3442V25.0669Z" fill="black"/>
<path d="M49.1977 25.0669H47.3445V26.9181H49.1977V25.0669Z" fill="black"/>
<path d="M51.0647 25.0669H49.2114V26.9181H51.0647V25.0669Z" fill="black"/>
<path d="M64.0789 25.0669H62.2256V26.9181H64.0789V25.0669Z" fill="black"/>
<path d="M65.9322 25.0669H64.0789V26.9181H65.9322V25.0669Z" fill="black"/>
<path d="M67.7993 25.0669H65.9458V26.9181H67.7993V25.0669Z" fill="black"/>
<path d="M73.3729 25.0669H71.5195V26.9181H73.3729V25.0669Z" fill="black"/>
<path d="M75.2261 25.0669H73.3728V26.9181H75.2261V25.0669Z" fill="black"/>
<path d="M78.9461 25.0669H77.0928V26.9181H78.9461V25.0669Z" fill="black"/>
<path d="M80.8133 25.0669H78.96V26.9181H80.8133V25.0669Z" fill="black"/>
<path d="M82.6668 25.0669H80.8135V26.9181H82.6668V25.0669Z" fill="black"/>
<path d="M84.5335 25.0669H82.6802V26.9181H84.5335V25.0669Z" fill="black"/>
<path d="M86.3869 25.0669H84.5337V26.9181H86.3869V25.0669Z" fill="black"/>
<path d="M88.2403 25.0669H86.387V26.9181H88.2403V25.0669Z" fill="black"/>
<path d="M91.9605 25.0669H90.1072V26.9181H91.9605V25.0669Z" fill="black"/>
<path d="M95.681 25.0669H93.8276V26.9181H95.681V25.0669Z" fill="black"/>
<path d="M13.8752 26.9319H12.0217V28.783H13.8752V26.9319Z" fill="black"/>
<path d="M15.7424 26.9319H13.8892V28.783H15.7424V26.9319Z" fill="black"/>
<path d="M17.5955 26.9319H15.7422V28.783H17.5955V26.9319Z" fill="black"/>
<path d="M23.1692 26.9319H21.3159V28.783H23.1692V26.9319Z" fill="black"/>
<path d="M28.7566 26.9319H26.9033V28.783H28.7566V26.9319Z" fill="black"/>
<path d="M34.3299 26.9319H32.4766V28.783H34.3299V26.9319Z" fill="black"/>
<path d="M36.1833 26.9319H34.3301V28.783H36.1833V26.9319Z" fill="black"/>
<path d="M39.9035 26.9319H38.0503V28.783H39.9035V26.9319Z" fill="black"/>
<path d="M43.6241 26.9319H41.7708V28.783H43.6241V26.9319Z" fill="black"/>
<path d="M47.3442 26.9319H45.4907V28.783H47.3442V26.9319Z" fill="black"/>
<path d="M49.1977 26.9319H47.3445V28.783H49.1977V26.9319Z" fill="black"/>
<path d="M51.0647 26.9319H49.2114V28.783H51.0647V26.9319Z" fill="black"/>
<path d="M52.9179 26.9319H51.0647V28.783H52.9179V26.9319Z" fill="black"/>
<path d="M56.6385 26.9319H54.7852V28.783H56.6385V26.9319Z" fill="black"/>
<path d="M62.2116 26.9319H60.3584V28.783H62.2116V26.9319Z" fill="black"/>
<path d="M65.9322 26.9319H64.0789V28.783H65.9322V26.9319Z" fill="black"/>
<path d="M69.6524 26.9319H67.7991V28.783H69.6524V26.9319Z" fill="black"/>
<path d="M71.5196 26.9319H69.6663V28.783H71.5196V26.9319Z" fill="black"/>
<path d="M73.3729 26.9319H71.5195V28.783H73.3729V26.9319Z" fill="black"/>
<path d="M78.9461 26.9319H77.0928V28.783H78.9461V26.9319Z" fill="black"/>
<path d="M80.8133 26.9319H78.96V28.783H80.8133V26.9319Z" fill="black"/>
<path d="M86.3869 26.9319H84.5337V28.783H86.3869V26.9319Z" fill="black"/>
<path d="M88.2403 26.9319H86.387V28.783H88.2403V26.9319Z" fill="black"/>
<path d="M91.9605 26.9319H90.1072V28.783H91.9605V26.9319Z" fill="black"/>
<path d="M93.8277 26.9319H91.9744V28.783H93.8277V26.9319Z" fill="black"/>
<path d="M95.681 26.9319H93.8276V28.783H95.681V26.9319Z" fill="black"/>
<path d="M6.44859 28.783H4.59521V30.6342H6.44859V28.783Z" fill="black"/>
<path d="M8.3018 28.783H6.44849V30.6342H8.3018V28.783Z" fill="black"/>
<path d="M12.0218 28.783H10.1685V30.6342H12.0218V28.783Z" fill="black"/>
<path d="M21.316 28.783H19.4626V30.6342H21.316V28.783Z" fill="black"/>
<path d="M23.1692 28.783H21.3159V30.6342H23.1692V28.783Z" fill="black"/>
<path d="M25.0364 28.783H23.1829V30.6342H25.0364V28.783Z" fill="black"/>
<path d="M26.8894 28.783H25.0361V30.6342H26.8894V28.783Z" fill="black"/>
<path d="M28.7566 28.783H26.9033V30.6342H28.7566V28.783Z" fill="black"/>
<path d="M30.6097 28.783H28.7563V30.6342H30.6097V28.783Z" fill="black"/>
<path d="M32.4768 28.783H30.6235V30.6342H32.4768V28.783Z" fill="black"/>
<path d="M34.3299 28.783H32.4766V30.6342H34.3299V28.783Z" fill="black"/>
<path d="M36.1833 28.783H34.3301V30.6342H36.1833V28.783Z" fill="black"/>
<path d="M41.7705 28.783H39.9172V30.6342H41.7705V28.783Z" fill="black"/>
<path d="M43.6241 28.783H41.7708V30.6342H43.6241V28.783Z" fill="black"/>
<path d="M49.1977 28.783H47.3445V30.6342H49.1977V28.783Z" fill="black"/>
<path d="M51.0647 28.783H49.2114V30.6342H51.0647V28.783Z" fill="black"/>
<path d="M54.785 28.783H52.9316V30.6342H54.785V28.783Z" fill="black"/>
<path d="M56.6385 28.783H54.7852V30.6342H56.6385V28.783Z" fill="black"/>
<path d="M60.3587 28.783H58.5054V30.6342H60.3587V28.783Z" fill="black"/>
<path d="M62.2116 28.783H60.3584V30.6342H62.2116V28.783Z" fill="black"/>
<path d="M67.7993 28.783H65.9458V30.6342H67.7993V28.783Z" fill="black"/>
<path d="M73.3729 28.783H71.5195V30.6342H73.3729V28.783Z" fill="black"/>
<path d="M77.0931 28.783H75.2397V30.6342H77.0931V28.783Z" fill="black"/>
<path d="M84.5335 28.783H82.6802V30.6342H84.5335V28.783Z" fill="black"/>
<path d="M88.2403 28.783H86.387V30.6342H88.2403V28.783Z" fill="black"/>
<path d="M91.9605 28.783H90.1072V30.6342H91.9605V28.783Z" fill="black"/>
<path d="M93.8277 28.783H91.9744V30.6342H93.8277V28.783Z" fill="black"/>
<path d="M13.8752 30.6343H12.0217V32.4855H13.8752V30.6343Z" fill="black"/>
<path d="M15.7424 30.6343H13.8892V32.4855H15.7424V30.6343Z" fill="black"/>
<path d="M17.5955 30.6343H15.7422V32.4855H17.5955V30.6343Z" fill="black"/>
<path d="M19.4624 30.6343H17.6091V32.4855H19.4624V30.6343Z" fill="black"/>
<path d="M21.316 30.6343H19.4626V32.4855H21.316V30.6343Z" fill="black"/>
<path d="M25.0364 30.6343H23.1829V32.4855H25.0364V30.6343Z" fill="black"/>
<path d="M32.4768 30.6343H30.6235V32.4855H32.4768V30.6343Z" fill="black"/>
<path d="M34.3299 30.6343H32.4766V32.4855H34.3299V30.6343Z" fill="black"/>
<path d="M39.9035 30.6343H38.0503V32.4855H39.9035V30.6343Z" fill="black"/>
<path d="M41.7705 30.6343H39.9172V32.4855H41.7705V30.6343Z" fill="black"/>
<path d="M47.3442 30.6343H45.4907V32.4855H47.3442V30.6343Z" fill="black"/>
<path d="M51.0647 30.6343H49.2114V32.4855H51.0647V30.6343Z" fill="black"/>
<path d="M54.785 30.6343H52.9316V32.4855H54.785V30.6343Z" fill="black"/>
<path d="M56.6385 30.6343H54.7852V32.4855H56.6385V30.6343Z" fill="black"/>
<path d="M58.505 30.6343H56.6516V32.4855H58.505V30.6343Z" fill="black"/>
<path d="M60.3587 30.6343H58.5054V32.4855H60.3587V30.6343Z" fill="black"/>
<path d="M62.2116 30.6343H60.3584V32.4855H62.2116V30.6343Z" fill="black"/>
<path d="M64.0789 30.6343H62.2256V32.4855H64.0789V30.6343Z" fill="black"/>
<path d="M65.9322 30.6343H64.0789V32.4855H65.9322V30.6343Z" fill="black"/>
<path d="M67.7993 30.6343H65.9458V32.4855H67.7993V30.6343Z" fill="black"/>
<path d="M69.6524 30.6343H67.7991V32.4855H69.6524V30.6343Z" fill="black"/>
<path d="M73.3729 30.6343H71.5195V32.4855H73.3729V30.6343Z" fill="black"/>
<path d="M77.0931 30.6343H75.2397V32.4855H77.0931V30.6343Z" fill="black"/>
<path d="M82.6668 30.6343H80.8135V32.4855H82.6668V30.6343Z" fill="black"/>
<path d="M84.5335 30.6343H82.6802V32.4855H84.5335V30.6343Z" fill="black"/>
<path d="M86.3869 30.6343H84.5337V32.4855H86.3869V30.6343Z" fill="black"/>
<path d="M91.9605 30.6343H90.1072V32.4855H91.9605V30.6343Z" fill="black"/>
<path d="M8.3018 32.499H6.44849V34.3502H8.3018V32.499Z" fill="black"/>
<path d="M12.0218 32.499H10.1685V34.3502H12.0218V32.499Z" fill="black"/>
<path d="M19.4624 32.499H17.6091V34.3502H19.4624V32.499Z" fill="black"/>
<path d="M30.6097 32.499H28.7563V34.3502H30.6097V32.499Z" fill="black"/>
<path d="M32.4768 32.499H30.6235V34.3502H32.4768V32.499Z" fill="black"/>
<path d="M45.491 32.499H43.6377V34.3502H45.491V32.499Z" fill="black"/>
<path d="M47.3442 32.499H45.4907V34.3502H47.3442V32.499Z" fill="black"/>
<path d="M51.0647 32.499H49.2114V34.3502H51.0647V32.499Z" fill="black"/>
<path d="M58.505 32.499H56.6516V34.3502H58.505V32.499Z" fill="black"/>
<path d="M60.3587 32.499H58.5054V34.3502H60.3587V32.499Z" fill="black"/>
<path d="M64.0789 32.499H62.2256V34.3502H64.0789V32.499Z" fill="black"/>
<path d="M67.7993 32.499H65.9458V34.3502H67.7993V32.499Z" fill="black"/>
<path d="M69.6524 32.499H67.7991V34.3502H69.6524V32.499Z" fill="black"/>
<path d="M71.5196 32.499H69.6663V34.3502H71.5196V32.499Z" fill="black"/>
<path d="M75.2261 32.499H73.3728V34.3502H75.2261V32.499Z" fill="black"/>
<path d="M78.9461 32.499H77.0928V34.3502H78.9461V32.499Z" fill="black"/>
<path d="M80.8133 32.499H78.96V34.3502H80.8133V32.499Z" fill="black"/>
<path d="M82.6668 32.499H80.8135V34.3502H82.6668V32.499Z" fill="black"/>
<path d="M84.5335 32.499H82.6802V34.3502H84.5335V32.499Z" fill="black"/>
<path d="M88.2403 32.499H86.387V34.3502H88.2403V32.499Z" fill="black"/>
<path d="M91.9605 32.499H90.1072V34.3502H91.9605V32.499Z" fill="black"/>
<path d="M93.8277 32.499H91.9744V34.3502H93.8277V32.499Z" fill="black"/>
<path d="M8.3018 34.3501H6.44849V36.2014H8.3018V34.3501Z" fill="black"/>
<path d="M12.0218 34.3501H10.1685V36.2014H12.0218V34.3501Z" fill="black"/>
<path d="M15.7424 34.3501H13.8892V36.2014H15.7424V34.3501Z" fill="black"/>
<path d="M17.5955 34.3501H15.7422V36.2014H17.5955V34.3501Z" fill="black"/>
<path d="M19.4624 34.3501H17.6091V36.2014H19.4624V34.3501Z" fill="black"/>
<path d="M25.0364 34.3501H23.1829V36.2014H25.0364V34.3501Z" fill="black"/>
<path d="M28.7566 34.3501H26.9033V36.2014H28.7566V34.3501Z" fill="black"/>
<path d="M38.0503 34.3501H36.197V36.2014H38.0503V34.3501Z" fill="black"/>
<path d="M41.7705 34.3501H39.9172V36.2014H41.7705V34.3501Z" fill="black"/>
<path d="M45.491 34.3501H43.6377V36.2014H45.491V34.3501Z" fill="black"/>
<path d="M49.1977 34.3501H47.3445V36.2014H49.1977V34.3501Z" fill="black"/>
<path d="M51.0647 34.3501H49.2114V36.2014H51.0647V34.3501Z" fill="black"/>
<path d="M52.9179 34.3501H51.0647V36.2014H52.9179V34.3501Z" fill="black"/>
<path d="M60.3587 34.3501H58.5054V36.2014H60.3587V34.3501Z" fill="black"/>
<path d="M62.2116 34.3501H60.3584V36.2014H62.2116V34.3501Z" fill="black"/>
<path d="M64.0789 34.3501H62.2256V36.2014H64.0789V34.3501Z" fill="black"/>
<path d="M65.9322 34.3501H64.0789V36.2014H65.9322V34.3501Z" fill="black"/>
<path d="M67.7993 34.3501H65.9458V36.2014H67.7993V34.3501Z" fill="black"/>
<path d="M73.3729 34.3501H71.5195V36.2014H73.3729V34.3501Z" fill="black"/>
<path d="M77.0931 34.3501H75.2397V36.2014H77.0931V34.3501Z" fill="black"/>
<path d="M80.8133 34.3501H78.96V36.2014H80.8133V34.3501Z" fill="black"/>
<path d="M82.6668 34.3501H80.8135V36.2014H82.6668V34.3501Z" fill="black"/>
<path d="M84.5335 34.3501H82.6802V36.2014H84.5335V34.3501Z" fill="black"/>
<path d="M88.2403 34.3501H86.387V36.2014H88.2403V34.3501Z" fill="black"/>
<path d="M91.9605 34.3501H90.1072V36.2014H91.9605V34.3501Z" fill="black"/>
<path d="M6.44859 36.2151H4.59521V38.0663H6.44859V36.2151Z" fill="black"/>
<path d="M8.3018 36.2151H6.44849V38.0663H8.3018V36.2151Z" fill="black"/>
<path d="M12.0218 36.2151H10.1685V38.0663H12.0218V36.2151Z" fill="black"/>
<path d="M13.8752 36.2151H12.0217V38.0663H13.8752V36.2151Z" fill="black"/>
<path d="M15.7424 36.2151H13.8892V38.0663H15.7424V36.2151Z" fill="black"/>
<path d="M25.0364 36.2151H23.1829V38.0663H25.0364V36.2151Z" fill="black"/>
<path d="M26.8894 36.2151H25.0361V38.0663H26.8894V36.2151Z" fill="black"/>
<path d="M28.7566 36.2151H26.9033V38.0663H28.7566V36.2151Z" fill="black"/>
<path d="M38.0503 36.2151H36.197V38.0663H38.0503V36.2151Z" fill="black"/>
<path d="M39.9035 36.2151H38.0503V38.0663H39.9035V36.2151Z" fill="black"/>
<path d="M43.6241 36.2151H41.7708V38.0663H43.6241V36.2151Z" fill="black"/>
<path d="M45.491 36.2151H43.6377V38.0663H45.491V36.2151Z" fill="black"/>
<path d="M49.1977 36.2151H47.3445V38.0663H49.1977V36.2151Z" fill="black"/>
<path d="M51.0647 36.2151H49.2114V38.0663H51.0647V36.2151Z" fill="black"/>
<path d="M54.785 36.2151H52.9316V38.0663H54.785V36.2151Z" fill="black"/>
<path d="M56.6385 36.2151H54.7852V38.0663H56.6385V36.2151Z" fill="black"/>
<path d="M62.2116 36.2151H60.3584V38.0663H62.2116V36.2151Z" fill="black"/>
<path d="M65.9322 36.2151H64.0789V38.0663H65.9322V36.2151Z" fill="black"/>
<path d="M77.0931 36.2151H75.2397V38.0663H77.0931V36.2151Z" fill="black"/>
<path d="M78.9461 36.2151H77.0928V38.0663H78.9461V36.2151Z" fill="black"/>
<path d="M82.6668 36.2151H80.8135V38.0663H82.6668V36.2151Z" fill="black"/>
<path d="M84.5335 36.2151H82.6802V38.0663H84.5335V36.2151Z" fill="black"/>
<path d="M86.3869 36.2151H84.5337V38.0663H86.3869V36.2151Z" fill="black"/>
<path d="M88.2403 36.2151H86.387V38.0663H88.2403V36.2151Z" fill="black"/>
<path d="M90.1073 36.2151H88.2539V38.0663H90.1073V36.2151Z" fill="black"/>
<path d="M8.3018 38.0664H6.44849V39.9176H8.3018V38.0664Z" fill="black"/>
<path d="M10.155 38.0664H8.30176V39.9176H10.155V38.0664Z" fill="black"/>
<path d="M13.8752 38.0664H12.0217V39.9176H13.8752V38.0664Z" fill="black"/>
<path d="M15.7424 38.0664H13.8892V39.9176H15.7424V38.0664Z" fill="black"/>
<path d="M17.5955 38.0664H15.7422V39.9176H17.5955V38.0664Z" fill="black"/>
<path d="M19.4624 38.0664H17.6091V39.9176H19.4624V38.0664Z" fill="black"/>
<path d="M21.316 38.0664H19.4626V39.9176H21.316V38.0664Z" fill="black"/>
<path d="M34.3299 38.0664H32.4766V39.9176H34.3299V38.0664Z" fill="black"/>
<path d="M36.1833 38.0664H34.3301V39.9176H36.1833V38.0664Z" fill="black"/>
<path d="M39.9035 38.0664H38.0503V39.9176H39.9035V38.0664Z" fill="black"/>
<path d="M54.785 38.0664H52.9316V39.9176H54.785V38.0664Z" fill="black"/>
<path d="M56.6385 38.0664H54.7852V39.9176H56.6385V38.0664Z" fill="black"/>
<path d="M58.505 38.0664H56.6516V39.9176H58.505V38.0664Z" fill="black"/>
<path d="M69.6524 38.0664H67.7991V39.9176H69.6524V38.0664Z" fill="black"/>
<path d="M73.3729 38.0664H71.5195V39.9176H73.3729V38.0664Z" fill="black"/>
<path d="M75.2261 38.0664H73.3728V39.9176H75.2261V38.0664Z" fill="black"/>
<path d="M77.0931 38.0664H75.2397V39.9176H77.0931V38.0664Z" fill="black"/>
<path d="M82.6668 38.0664H80.8135V39.9176H82.6668V38.0664Z" fill="black"/>
<path d="M88.2403 38.0664H86.387V39.9176H88.2403V38.0664Z" fill="black"/>
<path d="M90.1073 38.0664H88.2539V39.9176H90.1073V38.0664Z" fill="black"/>
<path d="M91.9605 38.0664H90.1072V39.9176H91.9605V38.0664Z" fill="black"/>
<path d="M6.44859 39.9312H4.59521V41.7823H6.44859V39.9312Z" fill="black"/>
<path d="M12.0218 39.9312H10.1685V41.7823H12.0218V39.9312Z" fill="black"/>
<path d="M13.8752 39.9312H12.0217V41.7823H13.8752V39.9312Z" fill="black"/>
<path d="M15.7424 39.9312H13.8892V41.7823H15.7424V39.9312Z" fill="black"/>
<path d="M23.1692 39.9312H21.3159V41.7823H23.1692V39.9312Z" fill="black"/>
<path d="M25.0364 39.9312H23.1829V41.7823H25.0364V39.9312Z" fill="black"/>
<path d="M26.8894 39.9312H25.0361V41.7823H26.8894V39.9312Z" fill="black"/>
<path d="M32.4768 39.9312H30.6235V41.7823H32.4768V39.9312Z" fill="black"/>
<path d="M36.1833 39.9312H34.3301V41.7823H36.1833V39.9312Z" fill="black"/>
<path d="M41.7705 39.9312H39.9172V41.7823H41.7705V39.9312Z" fill="black"/>
<path d="M45.491 39.9312H43.6377V41.7823H45.491V39.9312Z" fill="black"/>
<path d="M47.3442 39.9312H45.4907V41.7823H47.3442V39.9312Z" fill="black"/>
<path d="M49.1977 39.9312H47.3445V41.7823H49.1977V39.9312Z" fill="black"/>
<path d="M51.0647 39.9312H49.2114V41.7823H51.0647V39.9312Z" fill="black"/>
<path d="M60.3587 39.9312H58.5054V41.7823H60.3587V39.9312Z" fill="black"/>
<path d="M64.0789 39.9312H62.2256V41.7823H64.0789V39.9312Z" fill="black"/>
<path d="M65.9322 39.9312H64.0789V41.7823H65.9322V39.9312Z" fill="black"/>
<path d="M75.2261 39.9312H73.3728V41.7823H75.2261V39.9312Z" fill="black"/>
<path d="M80.8133 39.9312H78.96V41.7823H80.8133V39.9312Z" fill="black"/>
<path d="M82.6668 39.9312H80.8135V41.7823H82.6668V39.9312Z" fill="black"/>
<path d="M84.5335 39.9312H82.6802V41.7823H84.5335V39.9312Z" fill="black"/>
<path d="M86.3869 39.9312H84.5337V41.7823H86.3869V39.9312Z" fill="black"/>
<path d="M88.2403 39.9312H86.387V41.7823H88.2403V39.9312Z" fill="black"/>
<path d="M91.9605 39.9312H90.1072V41.7823H91.9605V39.9312Z" fill="black"/>
<path d="M8.3018 41.7825H6.44849V43.6337H8.3018V41.7825Z" fill="black"/>
<path d="M10.155 41.7825H8.30176V43.6337H10.155V41.7825Z" fill="black"/>
<path d="M17.5955 41.7825H15.7422V43.6337H17.5955V41.7825Z" fill="black"/>
<path d="M21.316 41.7825H19.4626V43.6337H21.316V41.7825Z" fill="black"/>
<path d="M26.8894 41.7825H25.0361V43.6337H26.8894V41.7825Z" fill="black"/>
<path d="M28.7566 41.7825H26.9033V43.6337H28.7566V41.7825Z" fill="black"/>
<path d="M34.3299 41.7825H32.4766V43.6337H34.3299V41.7825Z" fill="black"/>
<path d="M36.1833 41.7825H34.3301V43.6337H36.1833V41.7825Z" fill="black"/>
<path d="M39.9035 41.7825H38.0503V43.6337H39.9035V41.7825Z" fill="black"/>
<path d="M41.7705 41.7825H39.9172V43.6337H41.7705V41.7825Z" fill="black"/>
<path d="M47.3442 41.7825H45.4907V43.6337H47.3442V41.7825Z" fill="black"/>
<path d="M49.1977 41.7825H47.3445V43.6337H49.1977V41.7825Z" fill="black"/>
<path d="M51.0647 41.7825H49.2114V43.6337H51.0647V41.7825Z" fill="black"/>
<path d="M54.785 41.7825H52.9316V43.6337H54.785V41.7825Z" fill="black"/>
<path d="M56.6385 41.7825H54.7852V43.6337H56.6385V41.7825Z" fill="black"/>
<path d="M65.9322 41.7825H64.0789V43.6337H65.9322V41.7825Z" fill="black"/>
<path d="M69.6524 41.7825H67.7991V43.6337H69.6524V41.7825Z" fill="black"/>
<path d="M71.5196 41.7825H69.6663V43.6337H71.5196V41.7825Z" fill="black"/>
<path d="M73.3729 41.7825H71.5195V43.6337H73.3729V41.7825Z" fill="black"/>
<path d="M78.9461 41.7825H77.0928V43.6337H78.9461V41.7825Z" fill="black"/>
<path d="M80.8133 41.7825H78.96V43.6337H80.8133V41.7825Z" fill="black"/>
<path d="M84.5335 41.7825H82.6802V43.6337H84.5335V41.7825Z" fill="black"/>
<path d="M86.3869 41.7825H84.5337V43.6337H86.3869V41.7825Z" fill="black"/>
<path d="M88.2403 41.7825H86.387V43.6337H88.2403V41.7825Z" fill="black"/>
<path d="M90.1073 41.7825H88.2539V43.6337H90.1073V41.7825Z" fill="black"/>
<path d="M91.9605 41.7825H90.1072V43.6337H91.9605V41.7825Z" fill="black"/>
<path d="M95.681 41.7825H93.8276V43.6337H95.681V41.7825Z" fill="black"/>
<path d="M8.3018 43.6335H6.44849V45.4848H8.3018V43.6335Z" fill="black"/>
<path d="M23.1692 43.6335H21.3159V45.4848H23.1692V43.6335Z" fill="black"/>
<path d="M26.8894 43.6335H25.0361V45.4848H26.8894V43.6335Z" fill="black"/>
<path d="M28.7566 43.6335H26.9033V45.4848H28.7566V43.6335Z" fill="black"/>
<path d="M30.6097 43.6335H28.7563V45.4848H30.6097V43.6335Z" fill="black"/>
<path d="M32.4768 43.6335H30.6235V45.4848H32.4768V43.6335Z" fill="black"/>
<path d="M38.0503 43.6335H36.197V45.4848H38.0503V43.6335Z" fill="black"/>
<path d="M43.6241 43.6335H41.7708V45.4848H43.6241V43.6335Z" fill="black"/>
<path d="M45.491 43.6335H43.6377V45.4848H45.491V43.6335Z" fill="black"/>
<path d="M47.3442 43.6335H45.4907V45.4848H47.3442V43.6335Z" fill="black"/>
<path d="M49.1977 43.6335H47.3445V45.4848H49.1977V43.6335Z" fill="black"/>
<path d="M51.0647 43.6335H49.2114V45.4848H51.0647V43.6335Z" fill="black"/>
<path d="M52.9179 43.6335H51.0647V45.4848H52.9179V43.6335Z" fill="black"/>
<path d="M54.785 43.6335H52.9316V45.4848H54.785V43.6335Z" fill="black"/>
<path d="M56.6385 43.6335H54.7852V45.4848H56.6385V43.6335Z" fill="black"/>
<path d="M58.505 43.6335H56.6516V45.4848H58.505V43.6335Z" fill="black"/>
<path d="M60.3587 43.6335H58.5054V45.4848H60.3587V43.6335Z" fill="black"/>
<path d="M62.2116 43.6335H60.3584V45.4848H62.2116V43.6335Z" fill="black"/>
<path d="M65.9322 43.6335H64.0789V45.4848H65.9322V43.6335Z" fill="black"/>
<path d="M67.7993 43.6335H65.9458V45.4848H67.7993V43.6335Z" fill="black"/>
<path d="M71.5196 43.6335H69.6663V45.4848H71.5196V43.6335Z" fill="black"/>
<path d="M73.3729 43.6335H71.5195V45.4848H73.3729V43.6335Z" fill="black"/>
<path d="M75.2261 43.6335H73.3728V45.4848H75.2261V43.6335Z" fill="black"/>
<path d="M77.0931 43.6335H75.2397V45.4848H77.0931V43.6335Z" fill="black"/>
<path d="M78.9461 43.6335H77.0928V45.4848H78.9461V43.6335Z" fill="black"/>
<path d="M82.6668 43.6335H80.8135V45.4848H82.6668V43.6335Z" fill="black"/>
<path d="M84.5335 43.6335H82.6802V45.4848H84.5335V43.6335Z" fill="black"/>
<path d="M90.1073 43.6335H88.2539V45.4848H90.1073V43.6335Z" fill="black"/>
<path d="M6.44859 45.4985H4.59521V47.3498H6.44859V45.4985Z" fill="black"/>
<path d="M10.155 45.4985H8.30176V47.3498H10.155V45.4985Z" fill="black"/>
<path d="M12.0218 45.4985H10.1685V47.3498H12.0218V45.4985Z" fill="black"/>
<path d="M13.8752 45.4985H12.0217V47.3498H13.8752V45.4985Z" fill="black"/>
<path d="M15.7424 45.4985H13.8892V47.3498H15.7424V45.4985Z" fill="black"/>
<path d="M17.5955 45.4985H15.7422V47.3498H17.5955V45.4985Z" fill="black"/>
<path d="M19.4624 45.4985H17.6091V47.3498H19.4624V45.4985Z" fill="black"/>
<path d="M21.316 45.4985H19.4626V47.3498H21.316V45.4985Z" fill="black"/>
<path d="M23.1692 45.4985H21.3159V47.3498H23.1692V45.4985Z" fill="black"/>
<path d="M25.0364 45.4985H23.1829V47.3498H25.0364V45.4985Z" fill="black"/>
<path d="M26.8894 45.4985H25.0361V47.3498H26.8894V45.4985Z" fill="black"/>
<path d="M30.6097 45.4985H28.7563V47.3498H30.6097V45.4985Z" fill="black"/>
<path d="M32.4768 45.4985H30.6235V47.3498H32.4768V45.4985Z" fill="black"/>
<path d="M34.3299 45.4985H32.4766V47.3498H34.3299V45.4985Z" fill="black"/>
<path d="M36.1833 45.4985H34.3301V47.3498H36.1833V45.4985Z" fill="black"/>
<path d="M38.0503 45.4985H36.197V47.3498H38.0503V45.4985Z" fill="black"/>
<path d="M39.9035 45.4985H38.0503V47.3498H39.9035V45.4985Z" fill="black"/>
<path d="M43.6241 45.4985H41.7708V47.3498H43.6241V45.4985Z" fill="black"/>
<path d="M45.491 45.4985H43.6377V47.3498H45.491V45.4985Z" fill="black"/>
<path d="M47.3442 45.4985H45.4907V47.3498H47.3442V45.4985Z" fill="black"/>
<path d="M49.1977 45.4985H47.3445V47.3498H49.1977V45.4985Z" fill="black"/>
<path d="M51.0647 45.4985H49.2114V47.3498H51.0647V45.4985Z" fill="black"/>
<path d="M52.9179 45.4985H51.0647V47.3498H52.9179V45.4985Z" fill="black"/>
<path d="M54.785 45.4985H52.9316V47.3498H54.785V45.4985Z" fill="black"/>
<path d="M60.3587 45.4985H58.5054V47.3498H60.3587V45.4985Z" fill="black"/>
<path d="M62.2116 45.4985H60.3584V47.3498H62.2116V45.4985Z" fill="black"/>
<path d="M67.7993 45.4985H65.9458V47.3498H67.7993V45.4985Z" fill="black"/>
<path d="M71.5196 45.4985H69.6663V47.3498H71.5196V45.4985Z" fill="black"/>
<path d="M73.3729 45.4985H71.5195V47.3498H73.3729V45.4985Z" fill="black"/>
<path d="M77.0931 45.4985H75.2397V47.3498H77.0931V45.4985Z" fill="black"/>
<path d="M80.8133 45.4985H78.96V47.3498H80.8133V45.4985Z" fill="black"/>
<path d="M82.6668 45.4985H80.8135V47.3498H82.6668V45.4985Z" fill="black"/>
<path d="M84.5335 45.4985H82.6802V47.3498H84.5335V45.4985Z" fill="black"/>
<path d="M86.3869 45.4985H84.5337V47.3498H86.3869V45.4985Z" fill="black"/>
<path d="M88.2403 45.4985H86.387V47.3498H88.2403V45.4985Z" fill="black"/>
<path d="M93.8277 45.4985H91.9744V47.3498H93.8277V45.4985Z" fill="black"/>
<path d="M10.155 47.3496H8.30176V49.2008H10.155V47.3496Z" fill="black"/>
<path d="M12.0218 47.3496H10.1685V49.2008H12.0218V47.3496Z" fill="black"/>
<path d="M13.8752 47.3496H12.0217V49.2008H13.8752V47.3496Z" fill="black"/>
<path d="M21.316 47.3496H19.4626V49.2008H21.316V47.3496Z" fill="black"/>
<path d="M23.1692 47.3496H21.3159V49.2008H23.1692V47.3496Z" fill="black"/>
<path d="M25.0364 47.3496H23.1829V49.2008H25.0364V47.3496Z" fill="black"/>
<path d="M28.7566 47.3496H26.9033V49.2008H28.7566V47.3496Z" fill="black"/>
<path d="M30.6097 47.3496H28.7563V49.2008H30.6097V47.3496Z" fill="black"/>
<path d="M32.4768 47.3496H30.6235V49.2008H32.4768V47.3496Z" fill="black"/>
<path d="M36.1833 47.3496H34.3301V49.2008H36.1833V47.3496Z" fill="black"/>
<path d="M38.0503 47.3496H36.197V49.2008H38.0503V47.3496Z" fill="black"/>
<path d="M45.491 47.3496H43.6377V49.2008H45.491V47.3496Z" fill="black"/>
<path d="M47.3442 47.3496H45.4907V49.2008H47.3442V47.3496Z" fill="black"/>
<path d="M54.785 47.3496H52.9316V49.2008H54.785V47.3496Z" fill="black"/>
<path d="M62.2116 47.3496H60.3584V49.2008H62.2116V47.3496Z" fill="black"/>
<path d="M77.0931 47.3496H75.2397V49.2008H77.0931V47.3496Z" fill="black"/>
<path d="M80.8133 47.3496H78.96V49.2008H80.8133V47.3496Z" fill="black"/>
<path d="M88.2403 47.3496H86.387V49.2008H88.2403V47.3496Z" fill="black"/>
<path d="M91.9605 47.3496H90.1072V49.2008H91.9605V47.3496Z" fill="black"/>
<path d="M93.8277 47.3496H91.9744V49.2008H93.8277V47.3496Z" fill="black"/>
<path d="M95.681 47.3496H93.8276V49.2008H95.681V47.3496Z" fill="black"/>
<path d="M6.44859 49.2146H4.59521V51.0658H6.44859V49.2146Z" fill="black"/>
<path d="M13.8752 49.2146H12.0217V51.0658H13.8752V49.2146Z" fill="black"/>
<path d="M17.5955 49.2146H15.7422V51.0658H17.5955V49.2146Z" fill="black"/>
<path d="M21.316 49.2146H19.4626V51.0658H21.316V49.2146Z" fill="black"/>
<path d="M23.1692 49.2146H21.3159V51.0658H23.1692V49.2146Z" fill="black"/>
<path d="M25.0364 49.2146H23.1829V51.0658H25.0364V49.2146Z" fill="black"/>
<path d="M26.8894 49.2146H25.0361V51.0658H26.8894V49.2146Z" fill="black"/>
<path d="M32.4768 49.2146H30.6235V51.0658H32.4768V49.2146Z" fill="black"/>
<path d="M38.0503 49.2146H36.197V51.0658H38.0503V49.2146Z" fill="black"/>
<path d="M39.9035 49.2146H38.0503V51.0658H39.9035V49.2146Z" fill="black"/>
<path d="M47.3442 49.2146H45.4907V51.0658H47.3442V49.2146Z" fill="black"/>
<path d="M51.0647 49.2146H49.2114V51.0658H51.0647V49.2146Z" fill="black"/>
<path d="M54.785 49.2146H52.9316V51.0658H54.785V49.2146Z" fill="black"/>
<path d="M56.6385 49.2146H54.7852V51.0658H56.6385V49.2146Z" fill="black"/>
<path d="M60.3587 49.2146H58.5054V51.0658H60.3587V49.2146Z" fill="black"/>
<path d="M65.9322 49.2146H64.0789V51.0658H65.9322V49.2146Z" fill="black"/>
<path d="M71.5196 49.2146H69.6663V51.0658H71.5196V49.2146Z" fill="black"/>
<path d="M73.3729 49.2146H71.5195V51.0658H73.3729V49.2146Z" fill="black"/>
<path d="M78.9461 49.2146H77.0928V51.0658H78.9461V49.2146Z" fill="black"/>
<path d="M80.8133 49.2146H78.96V51.0658H80.8133V49.2146Z" fill="black"/>
<path d="M84.5335 49.2146H82.6802V51.0658H84.5335V49.2146Z" fill="black"/>
<path d="M88.2403 49.2146H86.387V51.0658H88.2403V49.2146Z" fill="black"/>
<path d="M90.1073 49.2146H88.2539V51.0658H90.1073V49.2146Z" fill="black"/>
<path d="M91.9605 49.2146H90.1072V51.0658H91.9605V49.2146Z" fill="black"/>
<path d="M8.3018 51.0657H6.44849V52.9169H8.3018V51.0657Z" fill="black"/>
<path d="M10.155 51.0657H8.30176V52.9169H10.155V51.0657Z" fill="black"/>
<path d="M13.8752 51.0657H12.0217V52.9169H13.8752V51.0657Z" fill="black"/>
<path d="M21.316 51.0657H19.4626V52.9169H21.316V51.0657Z" fill="black"/>
<path d="M23.1692 51.0657H21.3159V52.9169H23.1692V51.0657Z" fill="black"/>
<path d="M26.8894 51.0657H25.0361V52.9169H26.8894V51.0657Z" fill="black"/>
<path d="M32.4768 51.0657H30.6235V52.9169H32.4768V51.0657Z" fill="black"/>
<path d="M43.6241 51.0657H41.7708V52.9169H43.6241V51.0657Z" fill="black"/>
<path d="M47.3442 51.0657H45.4907V52.9169H47.3442V51.0657Z" fill="black"/>
<path d="M54.785 51.0657H52.9316V52.9169H54.785V51.0657Z" fill="black"/>
<path d="M60.3587 51.0657H58.5054V52.9169H60.3587V51.0657Z" fill="black"/>
<path d="M62.2116 51.0657H60.3584V52.9169H62.2116V51.0657Z" fill="black"/>
<path d="M64.0789 51.0657H62.2256V52.9169H64.0789V51.0657Z" fill="black"/>
<path d="M65.9322 51.0657H64.0789V52.9169H65.9322V51.0657Z" fill="black"/>
<path d="M67.7993 51.0657H65.9458V52.9169H67.7993V51.0657Z" fill="black"/>
<path d="M71.5196 51.0657H69.6663V52.9169H71.5196V51.0657Z" fill="black"/>
<path d="M73.3729 51.0657H71.5195V52.9169H73.3729V51.0657Z" fill="black"/>
<path d="M77.0931 51.0657H75.2397V52.9169H77.0931V51.0657Z" fill="black"/>
<path d="M80.8133 51.0657H78.96V52.9169H80.8133V51.0657Z" fill="black"/>
<path d="M88.2403 51.0657H86.387V52.9169H88.2403V51.0657Z" fill="black"/>
<path d="M90.1073 51.0657H88.2539V52.9169H90.1073V51.0657Z" fill="black"/>
<path d="M10.155 52.917H8.30176V54.7682H10.155V52.917Z" fill="black"/>
<path d="M13.8752 52.917H12.0217V54.7682H13.8752V52.917Z" fill="black"/>
<path d="M15.7424 52.917H13.8892V54.7682H15.7424V52.917Z" fill="black"/>
<path d="M17.5955 52.917H15.7422V54.7682H17.5955V52.917Z" fill="black"/>
<path d="M19.4624 52.917H17.6091V54.7682H19.4624V52.917Z" fill="black"/>
<path d="M21.316 52.917H19.4626V54.7682H21.316V52.917Z" fill="black"/>
<path d="M23.1692 52.917H21.3159V54.7682H23.1692V52.917Z" fill="black"/>
<path d="M26.8894 52.917H25.0361V54.7682H26.8894V52.917Z" fill="black"/>
<path d="M28.7566 52.917H26.9033V54.7682H28.7566V52.917Z" fill="black"/>
<path d="M30.6097 52.917H28.7563V54.7682H30.6097V52.917Z" fill="black"/>
<path d="M32.4768 52.917H30.6235V54.7682H32.4768V52.917Z" fill="black"/>
<path d="M39.9035 52.917H38.0503V54.7682H39.9035V52.917Z" fill="black"/>
<path d="M41.7705 52.917H39.9172V54.7682H41.7705V52.917Z" fill="black"/>
<path d="M47.3442 52.917H45.4907V54.7682H47.3442V52.917Z" fill="black"/>
<path d="M49.1977 52.917H47.3445V54.7682H49.1977V52.917Z" fill="black"/>
<path d="M51.0647 52.917H49.2114V54.7682H51.0647V52.917Z" fill="black"/>
<path d="M52.9179 52.917H51.0647V54.7682H52.9179V52.917Z" fill="black"/>
<path d="M54.785 52.917H52.9316V54.7682H54.785V52.917Z" fill="black"/>
<path d="M58.505 52.917H56.6516V54.7682H58.505V52.917Z" fill="black"/>
<path d="M62.2116 52.917H60.3584V54.7682H62.2116V52.917Z" fill="black"/>
<path d="M64.0789 52.917H62.2256V54.7682H64.0789V52.917Z" fill="black"/>
<path d="M67.7993 52.917H65.9458V54.7682H67.7993V52.917Z" fill="black"/>
<path d="M71.5196 52.917H69.6663V54.7682H71.5196V52.917Z" fill="black"/>
<path d="M78.9461 52.917H77.0928V54.7682H78.9461V52.917Z" fill="black"/>
<path d="M80.8133 52.917H78.96V54.7682H80.8133V52.917Z" fill="black"/>
<path d="M82.6668 52.917H80.8135V54.7682H82.6668V52.917Z" fill="black"/>
<path d="M84.5335 52.917H82.6802V54.7682H84.5335V52.917Z" fill="black"/>
<path d="M86.3869 52.917H84.5337V54.7682H86.3869V52.917Z" fill="black"/>
<path d="M88.2403 52.917H86.387V54.7682H88.2403V52.917Z" fill="black"/>
<path d="M6.44859 54.7817H4.59521V56.633H6.44859V54.7817Z" fill="black"/>
<path d="M8.3018 54.7817H6.44849V56.633H8.3018V54.7817Z" fill="black"/>
<path d="M10.155 54.7817H8.30176V56.633H10.155V54.7817Z" fill="black"/>
<path d="M13.8752 54.7817H12.0217V56.633H13.8752V54.7817Z" fill="black"/>
<path d="M15.7424 54.7817H13.8892V56.633H15.7424V54.7817Z" fill="black"/>
<path d="M19.4624 54.7817H17.6091V56.633H19.4624V54.7817Z" fill="black"/>
<path d="M23.1692 54.7817H21.3159V56.633H23.1692V54.7817Z" fill="black"/>
<path d="M25.0364 54.7817H23.1829V56.633H25.0364V54.7817Z" fill="black"/>
<path d="M32.4768 54.7817H30.6235V56.633H32.4768V54.7817Z" fill="black"/>
<path d="M36.1833 54.7817H34.3301V56.633H36.1833V54.7817Z" fill="black"/>
<path d="M38.0503 54.7817H36.197V56.633H38.0503V54.7817Z" fill="black"/>
<path d="M39.9035 54.7817H38.0503V56.633H39.9035V54.7817Z" fill="black"/>
<path d="M43.6241 54.7817H41.7708V56.633H43.6241V54.7817Z" fill="black"/>
<path d="M49.1977 54.7817H47.3445V56.633H49.1977V54.7817Z" fill="black"/>
<path d="M51.0647 54.7817H49.2114V56.633H51.0647V54.7817Z" fill="black"/>
<path d="M52.9179 54.7817H51.0647V56.633H52.9179V54.7817Z" fill="black"/>
<path d="M56.6385 54.7817H54.7852V56.633H56.6385V54.7817Z" fill="black"/>
<path d="M65.9322 54.7817H64.0789V56.633H65.9322V54.7817Z" fill="black"/>
<path d="M71.5196 54.7817H69.6663V56.633H71.5196V54.7817Z" fill="black"/>
<path d="M73.3729 54.7817H71.5195V56.633H73.3729V54.7817Z" fill="black"/>
<path d="M75.2261 54.7817H73.3728V56.633H75.2261V54.7817Z" fill="black"/>
<path d="M82.6668 54.7817H80.8135V56.633H82.6668V54.7817Z" fill="black"/>
<path d="M84.5335 54.7817H82.6802V56.633H84.5335V54.7817Z" fill="black"/>
<path d="M91.9605 54.7817H90.1072V56.633H91.9605V54.7817Z" fill="black"/>
<path d="M95.681 54.7817H93.8276V56.633H95.681V54.7817Z" fill="black"/>
<path d="M6.44859 56.6331H4.59521V58.4843H6.44859V56.6331Z" fill="black"/>
<path d="M8.3018 56.6331H6.44849V58.4843H8.3018V56.6331Z" fill="black"/>
<path d="M15.7424 56.6331H13.8892V58.4843H15.7424V56.6331Z" fill="black"/>
<path d="M17.5955 56.6331H15.7422V58.4843H17.5955V56.6331Z" fill="black"/>
<path d="M23.1692 56.6331H21.3159V58.4843H23.1692V56.6331Z" fill="black"/>
<path d="M25.0364 56.6331H23.1829V58.4843H25.0364V56.6331Z" fill="black"/>
<path d="M28.7566 56.6331H26.9033V58.4843H28.7566V56.6331Z" fill="black"/>
<path d="M30.6097 56.6331H28.7563V58.4843H30.6097V56.6331Z" fill="black"/>
<path d="M36.1833 56.6331H34.3301V58.4843H36.1833V56.6331Z" fill="black"/>
<path d="M39.9035 56.6331H38.0503V58.4843H39.9035V56.6331Z" fill="black"/>
<path d="M41.7705 56.6331H39.9172V58.4843H41.7705V56.6331Z" fill="black"/>
<path d="M43.6241 56.6331H41.7708V58.4843H43.6241V56.6331Z" fill="black"/>
<path d="M49.1977 56.6331H47.3445V58.4843H49.1977V56.6331Z" fill="black"/>
<path d="M51.0647 56.6331H49.2114V58.4843H51.0647V56.6331Z" fill="black"/>
<path d="M54.785 56.6331H52.9316V58.4843H54.785V56.6331Z" fill="black"/>
<path d="M56.6385 56.6331H54.7852V58.4843H56.6385V56.6331Z" fill="black"/>
<path d="M60.3587 56.6331H58.5054V58.4843H60.3587V56.6331Z" fill="black"/>
<path d="M64.0789 56.6331H62.2256V58.4843H64.0789V56.6331Z" fill="black"/>
<path d="M65.9322 56.6331H64.0789V58.4843H65.9322V56.6331Z" fill="black"/>
<path d="M67.7993 56.6331H65.9458V58.4843H67.7993V56.6331Z" fill="black"/>
<path d="M69.6524 56.6331H67.7991V58.4843H69.6524V56.6331Z" fill="black"/>
<path d="M71.5196 56.6331H69.6663V58.4843H71.5196V56.6331Z" fill="black"/>
<path d="M73.3729 56.6331H71.5195V58.4843H73.3729V56.6331Z" fill="black"/>
<path d="M80.8133 56.6331H78.96V58.4843H80.8133V56.6331Z" fill="black"/>
<path d="M84.5335 56.6331H82.6802V58.4843H84.5335V56.6331Z" fill="black"/>
<path d="M91.9605 56.6331H90.1072V58.4843H91.9605V56.6331Z" fill="black"/>
<path d="M93.8277 56.6331H91.9744V58.4843H93.8277V56.6331Z" fill="black"/>
<path d="M12.0218 58.4978H10.1685V60.349H12.0218V58.4978Z" fill="black"/>
<path d="M15.7424 58.4978H13.8892V60.349H15.7424V58.4978Z" fill="black"/>
<path d="M25.0364 58.4978H23.1829V60.349H25.0364V58.4978Z" fill="black"/>
<path d="M30.6097 58.4978H28.7563V60.349H30.6097V58.4978Z" fill="black"/>
<path d="M32.4768 58.4978H30.6235V60.349H32.4768V58.4978Z" fill="black"/>
<path d="M34.3299 58.4978H32.4766V60.349H34.3299V58.4978Z" fill="black"/>
<path d="M36.1833 58.4978H34.3301V60.349H36.1833V58.4978Z" fill="black"/>
<path d="M39.9035 58.4978H38.0503V60.349H39.9035V58.4978Z" fill="black"/>
<path d="M47.3442 58.4978H45.4907V60.349H47.3442V58.4978Z" fill="black"/>
<path d="M51.0647 58.4978H49.2114V60.349H51.0647V58.4978Z" fill="black"/>
<path d="M54.785 58.4978H52.9316V60.349H54.785V58.4978Z" fill="black"/>
<path d="M56.6385 58.4978H54.7852V60.349H56.6385V58.4978Z" fill="black"/>
<path d="M62.2116 58.4978H60.3584V60.349H62.2116V58.4978Z" fill="black"/>
<path d="M65.9322 58.4978H64.0789V60.349H65.9322V58.4978Z" fill="black"/>
<path d="M67.7993 58.4978H65.9458V60.349H67.7993V58.4978Z" fill="black"/>
<path d="M71.5196 58.4978H69.6663V60.349H71.5196V58.4978Z" fill="black"/>
<path d="M73.3729 58.4978H71.5195V60.349H73.3729V58.4978Z" fill="black"/>
<path d="M77.0931 58.4978H75.2397V60.349H77.0931V58.4978Z" fill="black"/>
<path d="M78.9461 58.4978H77.0928V60.349H78.9461V58.4978Z" fill="black"/>
<path d="M80.8133 58.4978H78.96V60.349H80.8133V58.4978Z" fill="black"/>
<path d="M82.6668 58.4978H80.8135V60.349H82.6668V58.4978Z" fill="black"/>
<path d="M84.5335 58.4978H82.6802V60.349H84.5335V58.4978Z" fill="black"/>
<path d="M88.2403 58.4978H86.387V60.349H88.2403V58.4978Z" fill="black"/>
<path d="M90.1073 58.4978H88.2539V60.349H90.1073V58.4978Z" fill="black"/>
<path d="M91.9605 58.4978H90.1072V60.349H91.9605V58.4978Z" fill="black"/>
<path d="M8.3018 60.3491H6.44849V62.2003H8.3018V60.3491Z" fill="black"/>
<path d="M10.155 60.3491H8.30176V62.2003H10.155V60.3491Z" fill="black"/>
<path d="M13.8752 60.3491H12.0217V62.2003H13.8752V60.3491Z" fill="black"/>
<path d="M17.5955 60.3491H15.7422V62.2003H17.5955V60.3491Z" fill="black"/>
<path d="M19.4624 60.3491H17.6091V62.2003H19.4624V60.3491Z" fill="black"/>
<path d="M21.316 60.3491H19.4626V62.2003H21.316V60.3491Z" fill="black"/>
<path d="M23.1692 60.3491H21.3159V62.2003H23.1692V60.3491Z" fill="black"/>
<path d="M26.8894 60.3491H25.0361V62.2003H26.8894V60.3491Z" fill="black"/>
<path d="M32.4768 60.3491H30.6235V62.2003H32.4768V60.3491Z" fill="black"/>
<path d="M34.3299 60.3491H32.4766V62.2003H34.3299V60.3491Z" fill="black"/>
<path d="M43.6241 60.3491H41.7708V62.2003H43.6241V60.3491Z" fill="black"/>
<path d="M52.9179 60.3491H51.0647V62.2003H52.9179V60.3491Z" fill="black"/>
<path d="M58.505 60.3491H56.6516V62.2003H58.505V60.3491Z" fill="black"/>
<path d="M60.3587 60.3491H58.5054V62.2003H60.3587V60.3491Z" fill="black"/>
<path d="M62.2116 60.3491H60.3584V62.2003H62.2116V60.3491Z" fill="black"/>
<path d="M64.0789 60.3491H62.2256V62.2003H64.0789V60.3491Z" fill="black"/>
<path d="M65.9322 60.3491H64.0789V62.2003H65.9322V60.3491Z" fill="black"/>
<path d="M67.7993 60.3491H65.9458V62.2003H67.7993V60.3491Z" fill="black"/>
<path d="M77.0931 60.3491H75.2397V62.2003H77.0931V60.3491Z" fill="black"/>
<path d="M86.3869 60.3491H84.5337V62.2003H86.3869V60.3491Z" fill="black"/>
<path d="M88.2403 60.3491H86.387V62.2003H88.2403V60.3491Z" fill="black"/>
<path d="M90.1073 60.3491H88.2539V62.2003H90.1073V60.3491Z" fill="black"/>
<path d="M91.9605 60.3491H90.1072V62.2003H91.9605V60.3491Z" fill="black"/>
<path d="M6.44859 62.2139H4.59521V64.065H6.44859V62.2139Z" fill="black"/>
<path d="M8.3018 62.2139H6.44849V64.065H8.3018V62.2139Z" fill="black"/>
<path d="M15.7424 62.2139H13.8892V64.065H15.7424V62.2139Z" fill="black"/>
<path d="M19.4624 62.2139H17.6091V64.065H19.4624V62.2139Z" fill="black"/>
<path d="M28.7566 62.2139H26.9033V64.065H28.7566V62.2139Z" fill="black"/>
<path d="M30.6097 62.2139H28.7563V64.065H30.6097V62.2139Z" fill="black"/>
<path d="M32.4768 62.2139H30.6235V64.065H32.4768V62.2139Z" fill="black"/>
<path d="M34.3299 62.2139H32.4766V64.065H34.3299V62.2139Z" fill="black"/>
<path d="M38.0503 62.2139H36.197V64.065H38.0503V62.2139Z" fill="black"/>
<path d="M39.9035 62.2139H38.0503V64.065H39.9035V62.2139Z" fill="black"/>
<path d="M41.7705 62.2139H39.9172V64.065H41.7705V62.2139Z" fill="black"/>
<path d="M43.6241 62.2139H41.7708V64.065H43.6241V62.2139Z" fill="black"/>
<path d="M49.1977 62.2139H47.3445V64.065H49.1977V62.2139Z" fill="black"/>
<path d="M52.9179 62.2139H51.0647V64.065H52.9179V62.2139Z" fill="black"/>
<path d="M54.785 62.2139H52.9316V64.065H54.785V62.2139Z" fill="black"/>
<path d="M56.6385 62.2139H54.7852V64.065H56.6385V62.2139Z" fill="black"/>
<path d="M58.505 62.2139H56.6516V64.065H58.505V62.2139Z" fill="black"/>
<path d="M62.2116 62.2139H60.3584V64.065H62.2116V62.2139Z" fill="black"/>
<path d="M71.5196 62.2139H69.6663V64.065H71.5196V62.2139Z" fill="black"/>
<path d="M73.3729 62.2139H71.5195V64.065H73.3729V62.2139Z" fill="black"/>
<path d="M75.2261 62.2139H73.3728V64.065H75.2261V62.2139Z" fill="black"/>
<path d="M84.5335 62.2139H82.6802V64.065H84.5335V62.2139Z" fill="black"/>
<path d="M86.3869 62.2139H84.5337V64.065H86.3869V62.2139Z" fill="black"/>
<path d="M88.2403 62.2139H86.387V64.065H88.2403V62.2139Z" fill="black"/>
<path d="M91.9605 62.2139H90.1072V64.065H91.9605V62.2139Z" fill="black"/>
<path d="M8.3018 64.0649H6.44849V65.9162H8.3018V64.0649Z" fill="black"/>
<path d="M10.155 64.0649H8.30176V65.9162H10.155V64.0649Z" fill="black"/>
<path d="M12.0218 64.0649H10.1685V65.9162H12.0218V64.0649Z" fill="black"/>
<path d="M13.8752 64.0649H12.0217V65.9162H13.8752V64.0649Z" fill="black"/>
<path d="M17.5955 64.0649H15.7422V65.9162H17.5955V64.0649Z" fill="black"/>
<path d="M19.4624 64.0649H17.6091V65.9162H19.4624V64.0649Z" fill="black"/>
<path d="M23.1692 64.0649H21.3159V65.9162H23.1692V64.0649Z" fill="black"/>
<path d="M26.8894 64.0649H25.0361V65.9162H26.8894V64.0649Z" fill="black"/>
<path d="M32.4768 64.0649H30.6235V65.9162H32.4768V64.0649Z" fill="black"/>
<path d="M39.9035 64.0649H38.0503V65.9162H39.9035V64.0649Z" fill="black"/>
<path d="M41.7705 64.0649H39.9172V65.9162H41.7705V64.0649Z" fill="black"/>
<path d="M45.491 64.0649H43.6377V65.9162H45.491V64.0649Z" fill="black"/>
<path d="M47.3442 64.0649H45.4907V65.9162H47.3442V64.0649Z" fill="black"/>
<path d="M49.1977 64.0649H47.3445V65.9162H49.1977V64.0649Z" fill="black"/>
<path d="M56.6385 64.0649H54.7852V65.9162H56.6385V64.0649Z" fill="black"/>
<path d="M58.505 64.0649H56.6516V65.9162H58.505V64.0649Z" fill="black"/>
<path d="M69.6524 64.0649H67.7991V65.9162H69.6524V64.0649Z" fill="black"/>
<path d="M71.5196 64.0649H69.6663V65.9162H71.5196V64.0649Z" fill="black"/>
<path d="M73.3729 64.0649H71.5195V65.9162H73.3729V64.0649Z" fill="black"/>
<path d="M75.2261 64.0649H73.3728V65.9162H75.2261V64.0649Z" fill="black"/>
<path d="M77.0931 64.0649H75.2397V65.9162H77.0931V64.0649Z" fill="black"/>
<path d="M82.6668 64.0649H80.8135V65.9162H82.6668V64.0649Z" fill="black"/>
<path d="M90.1073 64.0649H88.2539V65.9162H90.1073V64.0649Z" fill="black"/>
<path d="M91.9605 64.0649H90.1072V65.9162H91.9605V64.0649Z" fill="black"/>
<path d="M95.681 64.0649H93.8276V65.9162H95.681V64.0649Z" fill="black"/>
<path d="M10.155 65.9163H8.30176V67.7676H10.155V65.9163Z" fill="black"/>
<path d="M12.0218 65.9163H10.1685V67.7676H12.0218V65.9163Z" fill="black"/>
<path d="M13.8752 65.9163H12.0217V67.7676H13.8752V65.9163Z" fill="black"/>
<path d="M15.7424 65.9163H13.8892V67.7676H15.7424V65.9163Z" fill="black"/>
<path d="M25.0364 65.9163H23.1829V67.7676H25.0364V65.9163Z" fill="black"/>
<path d="M28.7566 65.9163H26.9033V67.7676H28.7566V65.9163Z" fill="black"/>
<path d="M30.6097 65.9163H28.7563V67.7676H30.6097V65.9163Z" fill="black"/>
<path d="M32.4768 65.9163H30.6235V67.7676H32.4768V65.9163Z" fill="black"/>
<path d="M38.0503 65.9163H36.197V67.7676H38.0503V65.9163Z" fill="black"/>
<path d="M43.6241 65.9163H41.7708V67.7676H43.6241V65.9163Z" fill="black"/>
<path d="M45.491 65.9163H43.6377V67.7676H45.491V65.9163Z" fill="black"/>
<path d="M51.0647 65.9163H49.2114V67.7676H51.0647V65.9163Z" fill="black"/>
<path d="M52.9179 65.9163H51.0647V67.7676H52.9179V65.9163Z" fill="black"/>
<path d="M58.505 65.9163H56.6516V67.7676H58.505V65.9163Z" fill="black"/>
<path d="M60.3587 65.9163H58.5054V67.7676H60.3587V65.9163Z" fill="black"/>
<path d="M64.0789 65.9163H62.2256V67.7676H64.0789V65.9163Z" fill="black"/>
<path d="M67.7993 65.9163H65.9458V67.7676H67.7993V65.9163Z" fill="black"/>
<path d="M69.6524 65.9163H67.7991V67.7676H69.6524V65.9163Z" fill="black"/>
<path d="M71.5196 65.9163H69.6663V67.7676H71.5196V65.9163Z" fill="black"/>
<path d="M77.0931 65.9163H75.2397V67.7676H77.0931V65.9163Z" fill="black"/>
<path d="M80.8133 65.9163H78.96V67.7676H80.8133V65.9163Z" fill="black"/>
<path d="M82.6668 65.9163H80.8135V67.7676H82.6668V65.9163Z" fill="black"/>
<path d="M86.3869 65.9163H84.5337V67.7676H86.3869V65.9163Z" fill="black"/>
<path d="M88.2403 65.9163H86.387V67.7676H88.2403V65.9163Z" fill="black"/>
<path d="M90.1073 65.9163H88.2539V67.7676H90.1073V65.9163Z" fill="black"/>
<path d="M8.3018 67.781H6.44849V69.6323H8.3018V67.781Z" fill="black"/>
<path d="M10.155 67.781H8.30176V69.6323H10.155V67.781Z" fill="black"/>
<path d="M17.5955 67.781H15.7422V69.6323H17.5955V67.781Z" fill="black"/>
<path d="M19.4624 67.781H17.6091V69.6323H19.4624V67.781Z" fill="black"/>
<path d="M21.316 67.781H19.4626V69.6323H21.316V67.781Z" fill="black"/>
<path d="M30.6097 67.781H28.7563V69.6323H30.6097V67.781Z" fill="black"/>
<path d="M36.1833 67.781H34.3301V69.6323H36.1833V67.781Z" fill="black"/>
<path d="M38.0503 67.781H36.197V69.6323H38.0503V67.781Z" fill="black"/>
<path d="M39.9035 67.781H38.0503V69.6323H39.9035V67.781Z" fill="black"/>
<path d="M41.7705 67.781H39.9172V69.6323H41.7705V67.781Z" fill="black"/>
<path d="M43.6241 67.781H41.7708V69.6323H43.6241V67.781Z" fill="black"/>
<path d="M45.491 67.781H43.6377V69.6323H45.491V67.781Z" fill="black"/>
<path d="M52.9179 67.781H51.0647V69.6323H52.9179V67.781Z" fill="black"/>
<path d="M60.3587 67.781H58.5054V69.6323H60.3587V67.781Z" fill="black"/>
<path d="M64.0789 67.781H62.2256V69.6323H64.0789V67.781Z" fill="black"/>
<path d="M65.9322 67.781H64.0789V69.6323H65.9322V67.781Z" fill="black"/>
<path d="M67.7993 67.781H65.9458V69.6323H67.7993V67.781Z" fill="black"/>
<path d="M69.6524 67.781H67.7991V69.6323H69.6524V67.781Z" fill="black"/>
<path d="M73.3729 67.781H71.5195V69.6323H73.3729V67.781Z" fill="black"/>
<path d="M75.2261 67.781H73.3728V69.6323H75.2261V67.781Z" fill="black"/>
<path d="M77.0931 67.781H75.2397V69.6323H77.0931V67.781Z" fill="black"/>
<path d="M78.9461 67.781H77.0928V69.6323H78.9461V67.781Z" fill="black"/>
<path d="M82.6668 67.781H80.8135V69.6323H82.6668V67.781Z" fill="black"/>
<path d="M88.2403 67.781H86.387V69.6323H88.2403V67.781Z" fill="black"/>
<path d="M90.1073 67.781H88.2539V69.6323H90.1073V67.781Z" fill="black"/>
<path d="M91.9605 67.781H90.1072V69.6323H91.9605V67.781Z" fill="black"/>
<path d="M6.44859 69.6323H4.59521V71.4835H6.44859V69.6323Z" fill="black"/>
<path d="M15.7424 69.6323H13.8892V71.4835H15.7424V69.6323Z" fill="black"/>
<path d="M19.4624 69.6323H17.6091V71.4835H19.4624V69.6323Z" fill="black"/>
<path d="M21.316 69.6323H19.4626V71.4835H21.316V69.6323Z" fill="black"/>
<path d="M23.1692 69.6323H21.3159V71.4835H23.1692V69.6323Z" fill="black"/>
<path d="M26.8894 69.6323H25.0361V71.4835H26.8894V69.6323Z" fill="black"/>
<path d="M30.6097 69.6323H28.7563V71.4835H30.6097V69.6323Z" fill="black"/>
<path d="M34.3299 69.6323H32.4766V71.4835H34.3299V69.6323Z" fill="black"/>
<path d="M36.1833 69.6323H34.3301V71.4835H36.1833V69.6323Z" fill="black"/>
<path d="M38.0503 69.6323H36.197V71.4835H38.0503V69.6323Z" fill="black"/>
<path d="M41.7705 69.6323H39.9172V71.4835H41.7705V69.6323Z" fill="black"/>
<path d="M43.6241 69.6323H41.7708V71.4835H43.6241V69.6323Z" fill="black"/>
<path d="M47.3442 69.6323H45.4907V71.4835H47.3442V69.6323Z" fill="black"/>
<path d="M52.9179 69.6323H51.0647V71.4835H52.9179V69.6323Z" fill="black"/>
<path d="M56.6385 69.6323H54.7852V71.4835H56.6385V69.6323Z" fill="black"/>
<path d="M60.3587 69.6323H58.5054V71.4835H60.3587V69.6323Z" fill="black"/>
<path d="M62.2116 69.6323H60.3584V71.4835H62.2116V69.6323Z" fill="black"/>
<path d="M65.9322 69.6323H64.0789V71.4835H65.9322V69.6323Z" fill="black"/>
<path d="M67.7993 69.6323H65.9458V71.4835H67.7993V69.6323Z" fill="black"/>
<path d="M69.6524 69.6323H67.7991V71.4835H69.6524V69.6323Z" fill="black"/>
<path d="M73.3729 69.6323H71.5195V71.4835H73.3729V69.6323Z" fill="black"/>
<path d="M75.2261 69.6323H73.3728V71.4835H75.2261V69.6323Z" fill="black"/>
<path d="M77.0931 69.6323H75.2397V71.4835H77.0931V69.6323Z" fill="black"/>
<path d="M80.8133 69.6323H78.96V71.4835H80.8133V69.6323Z" fill="black"/>
<path d="M82.6668 69.6323H80.8135V71.4835H82.6668V69.6323Z" fill="black"/>
<path d="M84.5335 69.6323H82.6802V71.4835H84.5335V69.6323Z" fill="black"/>
<path d="M86.3869 69.6323H84.5337V71.4835H86.3869V69.6323Z" fill="black"/>
<path d="M91.9605 69.6323H90.1072V71.4835H91.9605V69.6323Z" fill="black"/>
<path d="M93.8277 69.6323H91.9744V71.4835H93.8277V69.6323Z" fill="black"/>
<path d="M6.44859 71.4971H4.59521V73.3482H6.44859V71.4971Z" fill="black"/>
<path d="M13.8752 71.4971H12.0217V73.3482H13.8752V71.4971Z" fill="black"/>
<path d="M15.7424 71.4971H13.8892V73.3482H15.7424V71.4971Z" fill="black"/>
<path d="M17.5955 71.4971H15.7422V73.3482H17.5955V71.4971Z" fill="black"/>
<path d="M19.4624 71.4971H17.6091V73.3482H19.4624V71.4971Z" fill="black"/>
<path d="M25.0364 71.4971H23.1829V73.3482H25.0364V71.4971Z" fill="black"/>
<path d="M26.8894 71.4971H25.0361V73.3482H26.8894V71.4971Z" fill="black"/>
<path d="M30.6097 71.4971H28.7563V73.3482H30.6097V71.4971Z" fill="black"/>
<path d="M34.3299 71.4971H32.4766V73.3482H34.3299V71.4971Z" fill="black"/>
<path d="M38.0503 71.4971H36.197V73.3482H38.0503V71.4971Z" fill="black"/>
<path d="M41.7705 71.4971H39.9172V73.3482H41.7705V71.4971Z" fill="black"/>
<path d="M45.491 71.4971H43.6377V73.3482H45.491V71.4971Z" fill="black"/>
<path d="M47.3442 71.4971H45.4907V73.3482H47.3442V71.4971Z" fill="black"/>
<path d="M49.1977 71.4971H47.3445V73.3482H49.1977V71.4971Z" fill="black"/>
<path d="M52.9179 71.4971H51.0647V73.3482H52.9179V71.4971Z" fill="black"/>
<path d="M54.785 71.4971H52.9316V73.3482H54.785V71.4971Z" fill="black"/>
<path d="M56.6385 71.4971H54.7852V73.3482H56.6385V71.4971Z" fill="black"/>
<path d="M60.3587 71.4971H58.5054V73.3482H60.3587V71.4971Z" fill="black"/>
<path d="M62.2116 71.4971H60.3584V73.3482H62.2116V71.4971Z" fill="black"/>
<path d="M65.9322 71.4971H64.0789V73.3482H65.9322V71.4971Z" fill="black"/>
<path d="M67.7993 71.4971H65.9458V73.3482H67.7993V71.4971Z" fill="black"/>
<path d="M69.6524 71.4971H67.7991V73.3482H69.6524V71.4971Z" fill="black"/>
<path d="M71.5196 71.4971H69.6663V73.3482H71.5196V71.4971Z" fill="black"/>
<path d="M73.3729 71.4971H71.5195V73.3482H73.3729V71.4971Z" fill="black"/>
<path d="M75.2261 71.4971H73.3728V73.3482H75.2261V71.4971Z" fill="black"/>
<path d="M80.8133 71.4971H78.96V73.3482H80.8133V71.4971Z" fill="black"/>
<path d="M82.6668 71.4971H80.8135V73.3482H82.6668V71.4971Z" fill="black"/>
<path d="M84.5335 71.4971H82.6802V73.3482H84.5335V71.4971Z" fill="black"/>
<path d="M90.1073 71.4971H88.2539V73.3482H90.1073V71.4971Z" fill="black"/>
<path d="M91.9605 71.4971H90.1072V73.3482H91.9605V71.4971Z" fill="black"/>
<path d="M93.8277 71.4971H91.9744V73.3482H93.8277V71.4971Z" fill="black"/>
<path d="M95.681 71.4971H93.8276V73.3482H95.681V71.4971Z" fill="black"/>
<path d="M6.44859 73.3484H4.59521V75.1996H6.44859V73.3484Z" fill="black"/>
<path d="M8.3018 73.3484H6.44849V75.1996H8.3018V73.3484Z" fill="black"/>
<path d="M10.155 73.3484H8.30176V75.1996H10.155V73.3484Z" fill="black"/>
<path d="M21.316 73.3484H19.4626V75.1996H21.316V73.3484Z" fill="black"/>
<path d="M25.0364 73.3484H23.1829V75.1996H25.0364V73.3484Z" fill="black"/>
<path d="M26.8894 73.3484H25.0361V75.1996H26.8894V73.3484Z" fill="black"/>
<path d="M28.7566 73.3484H26.9033V75.1996H28.7566V73.3484Z" fill="black"/>
<path d="M30.6097 73.3484H28.7563V75.1996H30.6097V73.3484Z" fill="black"/>
<path d="M34.3299 73.3484H32.4766V75.1996H34.3299V73.3484Z" fill="black"/>
<path d="M43.6241 73.3484H41.7708V75.1996H43.6241V73.3484Z" fill="black"/>
<path d="M47.3442 73.3484H45.4907V75.1996H47.3442V73.3484Z" fill="black"/>
<path d="M49.1977 73.3484H47.3445V75.1996H49.1977V73.3484Z" fill="black"/>
<path d="M51.0647 73.3484H49.2114V75.1996H51.0647V73.3484Z" fill="black"/>
<path d="M56.6385 73.3484H54.7852V75.1996H56.6385V73.3484Z" fill="black"/>
<path d="M58.505 73.3484H56.6516V75.1996H58.505V73.3484Z" fill="black"/>
<path d="M60.3587 73.3484H58.5054V75.1996H60.3587V73.3484Z" fill="black"/>
<path d="M62.2116 73.3484H60.3584V75.1996H62.2116V73.3484Z" fill="black"/>
<path d="M67.7993 73.3484H65.9458V75.1996H67.7993V73.3484Z" fill="black"/>
<path d="M77.0931 73.3484H75.2397V75.1996H77.0931V73.3484Z" fill="black"/>
<path d="M78.9461 73.3484H77.0928V75.1996H78.9461V73.3484Z" fill="black"/>
<path d="M84.5335 73.3484H82.6802V75.1996H84.5335V73.3484Z" fill="black"/>
<path d="M86.3869 73.3484H84.5337V75.1996H86.3869V73.3484Z" fill="black"/>
<path d="M88.2403 73.3484H86.387V75.1996H88.2403V73.3484Z" fill="black"/>
<path d="M90.1073 73.3484H88.2539V75.1996H90.1073V73.3484Z" fill="black"/>
<path d="M93.8277 73.3484H91.9744V75.1996H93.8277V73.3484Z" fill="black"/>
<path d="M8.3018 75.2131H6.44849V77.0643H8.3018V75.2131Z" fill="black"/>
<path d="M15.7424 75.2131H13.8892V77.0643H15.7424V75.2131Z" fill="black"/>
<path d="M17.5955 75.2131H15.7422V77.0643H17.5955V75.2131Z" fill="black"/>
<path d="M21.316 75.2131H19.4626V77.0643H21.316V75.2131Z" fill="black"/>
<path d="M23.1692 75.2131H21.3159V77.0643H23.1692V75.2131Z" fill="black"/>
<path d="M26.8894 75.2131H25.0361V77.0643H26.8894V75.2131Z" fill="black"/>
<path d="M32.4768 75.2131H30.6235V77.0643H32.4768V75.2131Z" fill="black"/>
<path d="M36.1833 75.2131H34.3301V77.0643H36.1833V75.2131Z" fill="black"/>
<path d="M38.0503 75.2131H36.197V77.0643H38.0503V75.2131Z" fill="black"/>
<path d="M41.7705 75.2131H39.9172V77.0643H41.7705V75.2131Z" fill="black"/>
<path d="M43.6241 75.2131H41.7708V77.0643H43.6241V75.2131Z" fill="black"/>
<path d="M51.0647 75.2131H49.2114V77.0643H51.0647V75.2131Z" fill="black"/>
<path d="M52.9179 75.2131H51.0647V77.0643H52.9179V75.2131Z" fill="black"/>
<path d="M56.6385 75.2131H54.7852V77.0643H56.6385V75.2131Z" fill="black"/>
<path d="M58.505 75.2131H56.6516V77.0643H58.505V75.2131Z" fill="black"/>
<path d="M62.2116 75.2131H60.3584V77.0643H62.2116V75.2131Z" fill="black"/>
<path d="M65.9322 75.2131H64.0789V77.0643H65.9322V75.2131Z" fill="black"/>
<path d="M67.7993 75.2131H65.9458V77.0643H67.7993V75.2131Z" fill="black"/>
<path d="M71.5196 75.2131H69.6663V77.0643H71.5196V75.2131Z" fill="black"/>
<path d="M75.2261 75.2131H73.3728V77.0643H75.2261V75.2131Z" fill="black"/>
<path d="M77.0931 75.2131H75.2397V77.0643H77.0931V75.2131Z" fill="black"/>
<path d="M78.9461 75.2131H77.0928V77.0643H78.9461V75.2131Z" fill="black"/>
<path d="M86.3869 75.2131H84.5337V77.0643H86.3869V75.2131Z" fill="black"/>
<path d="M90.1073 75.2131H88.2539V77.0643H90.1073V75.2131Z" fill="black"/>
<path d="M8.3018 77.0645H6.44849V78.9157H8.3018V77.0645Z" fill="black"/>
<path d="M10.155 77.0645H8.30176V78.9157H10.155V77.0645Z" fill="black"/>
<path d="M12.0218 77.0645H10.1685V78.9157H12.0218V77.0645Z" fill="black"/>
<path d="M19.4624 77.0645H17.6091V78.9157H19.4624V77.0645Z" fill="black"/>
<path d="M21.316 77.0645H19.4626V78.9157H21.316V77.0645Z" fill="black"/>
<path d="M23.1692 77.0645H21.3159V78.9157H23.1692V77.0645Z" fill="black"/>
<path d="M26.8894 77.0645H25.0361V78.9157H26.8894V77.0645Z" fill="black"/>
<path d="M34.3299 77.0645H32.4766V78.9157H34.3299V77.0645Z" fill="black"/>
<path d="M36.1833 77.0645H34.3301V78.9157H36.1833V77.0645Z" fill="black"/>
<path d="M41.7705 77.0645H39.9172V78.9157H41.7705V77.0645Z" fill="black"/>
<path d="M43.6241 77.0645H41.7708V78.9157H43.6241V77.0645Z" fill="black"/>
<path d="M47.3442 77.0645H45.4907V78.9157H47.3442V77.0645Z" fill="black"/>
<path d="M51.0647 77.0645H49.2114V78.9157H51.0647V77.0645Z" fill="black"/>
<path d="M54.785 77.0645H52.9316V78.9157H54.785V77.0645Z" fill="black"/>
<path d="M60.3587 77.0645H58.5054V78.9157H60.3587V77.0645Z" fill="black"/>
<path d="M64.0789 77.0645H62.2256V78.9157H64.0789V77.0645Z" fill="black"/>
<path d="M65.9322 77.0645H64.0789V78.9157H65.9322V77.0645Z" fill="black"/>
<path d="M67.7993 77.0645H65.9458V78.9157H67.7993V77.0645Z" fill="black"/>
<path d="M84.5335 77.0645H82.6802V78.9157H84.5335V77.0645Z" fill="black"/>
<path d="M86.3869 77.0645H84.5337V78.9157H86.3869V77.0645Z" fill="black"/>
<path d="M90.1073 77.0645H88.2539V78.9157H90.1073V77.0645Z" fill="black"/>
<path d="M91.9605 77.0645H90.1072V78.9157H91.9605V77.0645Z" fill="black"/>
<path d="M6.44859 78.9158H4.59521V80.767H6.44859V78.9158Z" fill="black"/>
<path d="M8.3018 78.9158H6.44849V80.767H8.3018V78.9158Z" fill="black"/>
<path d="M10.155 78.9158H8.30176V80.767H10.155V78.9158Z" fill="black"/>
<path d="M17.5955 78.9158H15.7422V80.767H17.5955V78.9158Z" fill="black"/>
<path d="M23.1692 78.9158H21.3159V80.767H23.1692V78.9158Z" fill="black"/>
<path d="M26.8894 78.9158H25.0361V80.767H26.8894V78.9158Z" fill="black"/>
<path d="M30.6097 78.9158H28.7563V80.767H30.6097V78.9158Z" fill="black"/>
<path d="M32.4768 78.9158H30.6235V80.767H32.4768V78.9158Z" fill="black"/>
<path d="M36.1833 78.9158H34.3301V80.767H36.1833V78.9158Z" fill="black"/>
<path d="M41.7705 78.9158H39.9172V80.767H41.7705V78.9158Z" fill="black"/>
<path d="M45.491 78.9158H43.6377V80.767H45.491V78.9158Z" fill="black"/>
<path d="M47.3442 78.9158H45.4907V80.767H47.3442V78.9158Z" fill="black"/>
<path d="M49.1977 78.9158H47.3445V80.767H49.1977V78.9158Z" fill="black"/>
<path d="M51.0647 78.9158H49.2114V80.767H51.0647V78.9158Z" fill="black"/>
<path d="M52.9179 78.9158H51.0647V80.767H52.9179V78.9158Z" fill="black"/>
<path d="M54.785 78.9158H52.9316V80.767H54.785V78.9158Z" fill="black"/>
<path d="M56.6385 78.9158H54.7852V80.767H56.6385V78.9158Z" fill="black"/>
<path d="M65.9322 78.9158H64.0789V80.767H65.9322V78.9158Z" fill="black"/>
<path d="M67.7993 78.9158H65.9458V80.767H67.7993V78.9158Z" fill="black"/>
<path d="M69.6524 78.9158H67.7991V80.767H69.6524V78.9158Z" fill="black"/>
<path d="M71.5196 78.9158H69.6663V80.767H71.5196V78.9158Z" fill="black"/>
<path d="M73.3729 78.9158H71.5195V80.767H73.3729V78.9158Z" fill="black"/>
<path d="M75.2261 78.9158H73.3728V80.767H75.2261V78.9158Z" fill="black"/>
<path d="M80.8133 78.9158H78.96V80.767H80.8133V78.9158Z" fill="black"/>
<path d="M82.6668 78.9158H80.8135V80.767H82.6668V78.9158Z" fill="black"/>
<path d="M84.5335 78.9158H82.6802V80.767H84.5335V78.9158Z" fill="black"/>
<path d="M86.3869 78.9158H84.5337V80.767H86.3869V78.9158Z" fill="black"/>
<path d="M88.2403 78.9158H86.387V80.767H88.2403V78.9158Z" fill="black"/>
<path d="M90.1073 78.9158H88.2539V80.767H90.1073V78.9158Z" fill="black"/>
<path d="M91.9605 78.9158H90.1072V80.767H91.9605V78.9158Z" fill="black"/>
<path d="M21.316 80.7805H19.4626V82.6317H21.316V80.7805Z" fill="black"/>
<path d="M25.0364 80.7805H23.1829V82.6317H25.0364V80.7805Z" fill="black"/>
<path d="M26.8894 80.7805H25.0361V82.6317H26.8894V80.7805Z" fill="black"/>
<path d="M30.6097 80.7805H28.7563V82.6317H30.6097V80.7805Z" fill="black"/>
<path d="M32.4768 80.7805H30.6235V82.6317H32.4768V80.7805Z" fill="black"/>
<path d="M34.3299 80.7805H32.4766V82.6317H34.3299V80.7805Z" fill="black"/>
<path d="M36.1833 80.7805H34.3301V82.6317H36.1833V80.7805Z" fill="black"/>
<path d="M39.9035 80.7805H38.0503V82.6317H39.9035V80.7805Z" fill="black"/>
<path d="M43.6241 80.7805H41.7708V82.6317H43.6241V80.7805Z" fill="black"/>
<path d="M47.3442 80.7805H45.4907V82.6317H47.3442V80.7805Z" fill="black"/>
<path d="M54.785 80.7805H52.9316V82.6317H54.785V80.7805Z" fill="black"/>
<path d="M56.6385 80.7805H54.7852V82.6317H56.6385V80.7805Z" fill="black"/>
<path d="M60.3587 80.7805H58.5054V82.6317H60.3587V80.7805Z" fill="black"/>
<path d="M62.2116 80.7805H60.3584V82.6317H62.2116V80.7805Z" fill="black"/>
<path d="M65.9322 80.7805H64.0789V82.6317H65.9322V80.7805Z" fill="black"/>
<path d="M67.7993 80.7805H65.9458V82.6317H67.7993V80.7805Z" fill="black"/>
<path d="M71.5196 80.7805H69.6663V82.6317H71.5196V80.7805Z" fill="black"/>
<path d="M73.3729 80.7805H71.5195V82.6317H73.3729V80.7805Z" fill="black"/>
<path d="M77.0931 80.7805H75.2397V82.6317H77.0931V80.7805Z" fill="black"/>
<path d="M78.9461 80.7805H77.0928V82.6317H78.9461V80.7805Z" fill="black"/>
<path d="M80.8133 80.7805H78.96V82.6317H80.8133V80.7805Z" fill="black"/>
<path d="M88.2403 80.7805H86.387V82.6317H88.2403V80.7805Z" fill="black"/>
<path d="M90.1073 80.7805H88.2539V82.6317H90.1073V80.7805Z" fill="black"/>
<path d="M21.316 82.6316H19.4626V84.4827H21.316V82.6316Z" fill="black"/>
<path d="M28.7566 82.6316H26.9033V84.4827H28.7566V82.6316Z" fill="black"/>
<path d="M32.4768 82.6316H30.6235V84.4827H32.4768V82.6316Z" fill="black"/>
<path d="M34.3299 82.6316H32.4766V84.4827H34.3299V82.6316Z" fill="black"/>
<path d="M36.1833 82.6316H34.3301V84.4827H36.1833V82.6316Z" fill="black"/>
<path d="M43.6241 82.6316H41.7708V84.4827H43.6241V82.6316Z" fill="black"/>
<path d="M47.3442 82.6316H45.4907V84.4827H47.3442V82.6316Z" fill="black"/>
<path d="M51.0647 82.6316H49.2114V84.4827H51.0647V82.6316Z" fill="black"/>
<path d="M54.785 82.6316H52.9316V84.4827H54.785V82.6316Z" fill="black"/>
<path d="M58.505 82.6316H56.6516V84.4827H58.505V82.6316Z" fill="black"/>
<path d="M60.3587 82.6316H58.5054V84.4827H60.3587V82.6316Z" fill="black"/>
<path d="M62.2116 82.6316H60.3584V84.4827H62.2116V82.6316Z" fill="black"/>
<path d="M67.7993 82.6316H65.9458V84.4827H67.7993V82.6316Z" fill="black"/>
<path d="M71.5196 82.6316H69.6663V84.4827H71.5196V82.6316Z" fill="black"/>
<path d="M73.3729 82.6316H71.5195V84.4827H73.3729V82.6316Z" fill="black"/>
<path d="M75.2261 82.6316H73.3728V84.4827H75.2261V82.6316Z" fill="black"/>
<path d="M77.0931 82.6316H75.2397V84.4827H77.0931V82.6316Z" fill="black"/>
<path d="M80.8133 82.6316H78.96V84.4827H80.8133V82.6316Z" fill="black"/>
<path d="M84.5335 82.6316H82.6802V84.4827H84.5335V82.6316Z" fill="black"/>
<path d="M88.2403 82.6316H86.387V84.4827H88.2403V82.6316Z" fill="black"/>
<path d="M93.8277 82.6316H91.9744V84.4827H93.8277V82.6316Z" fill="black"/>
<path d="M25.0364 84.4966H23.1829V86.3477H25.0364V84.4966Z" fill="black"/>
<path d="M30.6097 84.4966H28.7563V86.3477H30.6097V84.4966Z" fill="black"/>
<path d="M32.4768 84.4966H30.6235V86.3477H32.4768V84.4966Z" fill="black"/>
<path d="M39.9035 84.4966H38.0503V86.3477H39.9035V84.4966Z" fill="black"/>
<path d="M45.491 84.4966H43.6377V86.3477H45.491V84.4966Z" fill="black"/>
<path d="M47.3442 84.4966H45.4907V86.3477H47.3442V84.4966Z" fill="black"/>
<path d="M54.785 84.4966H52.9316V86.3477H54.785V84.4966Z" fill="black"/>
<path d="M56.6385 84.4966H54.7852V86.3477H56.6385V84.4966Z" fill="black"/>
<path d="M65.9322 84.4966H64.0789V86.3477H65.9322V84.4966Z" fill="black"/>
<path d="M71.5196 84.4966H69.6663V86.3477H71.5196V84.4966Z" fill="black"/>
<path d="M73.3729 84.4966H71.5195V86.3477H73.3729V84.4966Z" fill="black"/>
<path d="M77.0931 84.4966H75.2397V86.3477H77.0931V84.4966Z" fill="black"/>
<path d="M80.8133 84.4966H78.96V86.3477H80.8133V84.4966Z" fill="black"/>
<path d="M88.2403 84.4966H86.387V86.3477H88.2403V84.4966Z" fill="black"/>
<path d="M91.9605 84.4966H90.1072V86.3477H91.9605V84.4966Z" fill="black"/>
<path d="M93.8277 84.4966H91.9744V86.3477H93.8277V84.4966Z" fill="black"/>
<path d="M95.681 84.4966H93.8276V86.3477H95.681V84.4966Z" fill="black"/>
<path d="M21.316 86.3477H19.4626V88.1989H21.316V86.3477Z" fill="black"/>
<path d="M23.1692 86.3477H21.3159V88.1989H23.1692V86.3477Z" fill="black"/>
<path d="M26.8894 86.3477H25.0361V88.1989H26.8894V86.3477Z" fill="black"/>
<path d="M28.7566 86.3477H26.9033V88.1989H28.7566V86.3477Z" fill="black"/>
<path d="M30.6097 86.3477H28.7563V88.1989H30.6097V86.3477Z" fill="black"/>
<path d="M34.3299 86.3477H32.4766V88.1989H34.3299V86.3477Z" fill="black"/>
<path d="M38.0503 86.3477H36.197V88.1989H38.0503V86.3477Z" fill="black"/>
<path d="M39.9035 86.3477H38.0503V88.1989H39.9035V86.3477Z" fill="black"/>
<path d="M43.6241 86.3477H41.7708V88.1989H43.6241V86.3477Z" fill="black"/>
<path d="M47.3442 86.3477H45.4907V88.1989H47.3442V86.3477Z" fill="black"/>
<path d="M49.1977 86.3477H47.3445V88.1989H49.1977V86.3477Z" fill="black"/>
<path d="M51.0647 86.3477H49.2114V88.1989H51.0647V86.3477Z" fill="black"/>
<path d="M52.9179 86.3477H51.0647V88.1989H52.9179V86.3477Z" fill="black"/>
<path d="M54.785 86.3477H52.9316V88.1989H54.785V86.3477Z" fill="black"/>
<path d="M56.6385 86.3477H54.7852V88.1989H56.6385V86.3477Z" fill="black"/>
<path d="M65.9322 86.3477H64.0789V88.1989H65.9322V86.3477Z" fill="black"/>
<path d="M71.5196 86.3477H69.6663V88.1989H71.5196V86.3477Z" fill="black"/>
<path d="M73.3729 86.3477H71.5195V88.1989H73.3729V86.3477Z" fill="black"/>
<path d="M78.9461 86.3477H77.0928V88.1989H78.9461V86.3477Z" fill="black"/>
<path d="M80.8133 86.3477H78.96V88.1989H80.8133V86.3477Z" fill="black"/>
<path d="M82.6668 86.3477H80.8135V88.1989H82.6668V86.3477Z" fill="black"/>
<path d="M84.5335 86.3477H82.6802V88.1989H84.5335V86.3477Z" fill="black"/>
<path d="M86.3869 86.3477H84.5337V88.1989H86.3869V86.3477Z" fill="black"/>
<path d="M88.2403 86.3477H86.387V88.1989H88.2403V86.3477Z" fill="black"/>
<path d="M90.1073 86.3477H88.2539V88.1989H90.1073V86.3477Z" fill="black"/>
<path d="M91.9605 86.3477H90.1072V88.1989H91.9605V86.3477Z" fill="black"/>
<path d="M23.1692 88.2126H21.3159V90.0639H23.1692V88.2126Z" fill="black"/>
<path d="M25.0364 88.2126H23.1829V90.0639H25.0364V88.2126Z" fill="black"/>
<path d="M26.8894 88.2126H25.0361V90.0639H26.8894V88.2126Z" fill="black"/>
<path d="M34.3299 88.2126H32.4766V90.0639H34.3299V88.2126Z" fill="black"/>
<path d="M38.0503 88.2126H36.197V90.0639H38.0503V88.2126Z" fill="black"/>
<path d="M41.7705 88.2126H39.9172V90.0639H41.7705V88.2126Z" fill="black"/>
<path d="M43.6241 88.2126H41.7708V90.0639H43.6241V88.2126Z" fill="black"/>
<path d="M47.3442 88.2126H45.4907V90.0639H47.3442V88.2126Z" fill="black"/>
<path d="M60.3587 88.2126H58.5054V90.0639H60.3587V88.2126Z" fill="black"/>
<path d="M62.2116 88.2126H60.3584V90.0639H62.2116V88.2126Z" fill="black"/>
<path d="M67.7993 88.2126H65.9458V90.0639H67.7993V88.2126Z" fill="black"/>
<path d="M71.5196 88.2126H69.6663V90.0639H71.5196V88.2126Z" fill="black"/>
<path d="M73.3729 88.2126H71.5195V90.0639H73.3729V88.2126Z" fill="black"/>
<path d="M77.0931 88.2126H75.2397V90.0639H77.0931V88.2126Z" fill="black"/>
<path d="M78.9461 88.2126H77.0928V90.0639H78.9461V88.2126Z" fill="black"/>
<path d="M95.681 88.2126H93.8276V90.0639H95.681V88.2126Z" fill="black"/>
<path d="M28.7566 90.064H26.9033V91.9152H28.7566V90.064Z" fill="black"/>
<path d="M36.1833 90.064H34.3301V91.9152H36.1833V90.064Z" fill="black"/>
<path d="M39.9035 90.064H38.0503V91.9152H39.9035V90.064Z" fill="black"/>
<path d="M41.7705 90.064H39.9172V91.9152H41.7705V90.064Z" fill="black"/>
<path d="M45.491 90.064H43.6377V91.9152H45.491V90.064Z" fill="black"/>
<path d="M54.785 90.064H52.9316V91.9152H54.785V90.064Z" fill="black"/>
<path d="M58.505 90.064H56.6516V91.9152H58.505V90.064Z" fill="black"/>
<path d="M62.2116 90.064H60.3584V91.9152H62.2116V90.064Z" fill="black"/>
<path d="M64.0789 90.064H62.2256V91.9152H64.0789V90.064Z" fill="black"/>
<path d="M65.9322 90.064H64.0789V91.9152H65.9322V90.064Z" fill="black"/>
<path d="M67.7993 90.064H65.9458V91.9152H67.7993V90.064Z" fill="black"/>
<path d="M71.5196 90.064H69.6663V91.9152H71.5196V90.064Z" fill="black"/>
<path d="M73.3729 90.064H71.5195V91.9152H73.3729V90.064Z" fill="black"/>
<path d="M80.8133 90.064H78.96V91.9152H80.8133V90.064Z" fill="black"/>
<path d="M86.3869 90.064H84.5337V91.9152H86.3869V90.064Z" fill="black"/>
<path d="M93.8277 90.064H91.9744V91.9152H93.8277V90.064Z" fill="black"/>
<path d="M95.681 90.064H93.8276V91.9152H95.681V90.064Z" fill="black"/>
<path d="M23.1692 91.915H21.3159V93.7663H23.1692V91.915Z" fill="black"/>
<path d="M32.4768 91.915H30.6235V93.7663H32.4768V91.915Z" fill="black"/>
<path d="M39.9035 91.915H38.0503V93.7663H39.9035V91.915Z" fill="black"/>
<path d="M45.491 91.915H43.6377V93.7663H45.491V91.915Z" fill="black"/>
<path d="M49.1977 91.915H47.3445V93.7663H49.1977V91.915Z" fill="black"/>
<path d="M51.0647 91.915H49.2114V93.7663H51.0647V91.915Z" fill="black"/>
<path d="M52.9179 91.915H51.0647V93.7663H52.9179V91.915Z" fill="black"/>
<path d="M54.785 91.915H52.9316V93.7663H54.785V91.915Z" fill="black"/>
<path d="M58.505 91.915H56.6516V93.7663H58.505V91.915Z" fill="black"/>
<path d="M60.3587 91.915H58.5054V93.7663H60.3587V91.915Z" fill="black"/>
<path d="M64.0789 91.915H62.2256V93.7663H64.0789V91.915Z" fill="black"/>
<path d="M67.7993 91.915H65.9458V93.7663H67.7993V91.915Z" fill="black"/>
<path d="M69.6524 91.915H67.7991V93.7663H69.6524V91.915Z" fill="black"/>
<path d="M71.5196 91.915H69.6663V93.7663H71.5196V91.915Z" fill="black"/>
<path d="M73.3729 91.915H71.5195V93.7663H73.3729V91.915Z" fill="black"/>
<path d="M75.2261 91.915H73.3728V93.7663H75.2261V91.915Z" fill="black"/>
<path d="M78.9461 91.915H77.0928V93.7663H78.9461V91.915Z" fill="black"/>
<path d="M91.9605 91.915H90.1072V93.7663H91.9605V91.915Z" fill="black"/>
<path d="M93.8277 91.915H91.9744V93.7663H93.8277V91.915Z" fill="black"/>
<path d="M21.316 93.7798H19.4626V95.6311H21.316V93.7798Z" fill="black"/>
<path d="M25.0364 93.7798H23.1829V95.6311H25.0364V93.7798Z" fill="black"/>
<path d="M32.4768 93.7798H30.6235V95.6311H32.4768V93.7798Z" fill="black"/>
<path d="M34.3299 93.7798H32.4766V95.6311H34.3299V93.7798Z" fill="black"/>
<path d="M39.9035 93.7798H38.0503V95.6311H39.9035V93.7798Z" fill="black"/>
<path d="M43.6241 93.7798H41.7708V95.6311H43.6241V93.7798Z" fill="black"/>
<path d="M45.491 93.7798H43.6377V95.6311H45.491V93.7798Z" fill="black"/>
<path d="M49.1977 93.7798H47.3445V95.6311H49.1977V93.7798Z" fill="black"/>
<path d="M51.0647 93.7798H49.2114V95.6311H51.0647V93.7798Z" fill="black"/>
<path d="M52.9179 93.7798H51.0647V95.6311H52.9179V93.7798Z" fill="black"/>
<path d="M54.785 93.7798H52.9316V95.6311H54.785V93.7798Z" fill="black"/>
<path d="M60.3587 93.7798H58.5054V95.6311H60.3587V93.7798Z" fill="black"/>
<path d="M62.2116 93.7798H60.3584V95.6311H62.2116V93.7798Z" fill="black"/>
<path d="M64.0789 93.7798H62.2256V95.6311H64.0789V93.7798Z" fill="black"/>
<path d="M65.9322 93.7798H64.0789V95.6311H65.9322V93.7798Z" fill="black"/>
<path d="M67.7993 93.7798H65.9458V95.6311H67.7993V93.7798Z" fill="black"/>
<path d="M71.5196 93.7798H69.6663V95.6311H71.5196V93.7798Z" fill="black"/>
<path d="M73.3729 93.7798H71.5195V95.6311H73.3729V93.7798Z" fill="black"/>
<path d="M75.2261 93.7798H73.3728V95.6311H75.2261V93.7798Z" fill="black"/>
<path d="M77.0931 93.7798H75.2397V95.6311H77.0931V93.7798Z" fill="black"/>
<path d="M84.5335 93.7798H82.6802V95.6311H84.5335V93.7798Z" fill="black"/>
<path d="M86.3869 93.7798H84.5337V95.6311H86.3869V93.7798Z" fill="black"/>
<path d="M88.2403 93.7798H86.387V95.6311H88.2403V93.7798Z" fill="black"/>
<path d="M90.1073 93.7798H88.2539V95.6311H90.1073V93.7798Z" fill="black"/>
<path d="M93.8277 93.7798H91.9744V95.6311H93.8277V93.7798Z" fill="black"/>
<path d="M95.681 93.7798H93.8276V95.6311H95.681V93.7798Z" fill="black"/>
<path d="M15.647 4.6355H4.58154V17.6348H17.5957V4.6355H15.647ZM15.647 15.6883H6.5439V6.5956H15.647V15.6883Z" fill="black"/>
<path d="M93.732 4.6355H82.6665V17.6348H95.6807V4.6355H93.732ZM93.732 15.6883H84.6289V6.5956H93.732V15.6883Z" fill="black"/>
<path d="M15.647 82.6316H4.58154V95.631H17.5957V82.6316H15.647ZM15.647 93.6845H6.5439V84.5781H15.647V93.6845Z" fill="black"/>
<path d="M13.8754 8.35156H8.30176V13.9189H13.8754V8.35156Z" fill="black"/>
<path d="M91.9606 8.35156H86.387V13.9189H91.9606V8.35156Z" fill="black"/>
<path d="M13.8754 86.3477H8.30176V91.9151H13.8754V86.3477Z" fill="black"/>
</svg>
