<svg width="13" height="9" viewBox="0 0 13 9" fill="none" xmlns="http://www.w3.org/2000/svg">
<path d="M6.33026 5.64395C6.42566 5.64395 6.52105 5.61672 6.58919 5.56227L6.61647 5.54866C6.61647 5.54866 6.63007 5.54866 6.63007 5.53505L6.86175 5.33087L12.5308 0.661985C12.5171 0.648373 12.5035 0.634766 12.4762 0.634766H0.143448C0.129821 0.634766 0.116195 0.634758 0.102568 0.64837L6.03046 5.53505C6.11222 5.61672 6.20762 5.64395 6.33026 5.64395ZM0.0752862 1.31536V8.24382L4.32703 4.81362L0.0752862 1.31536ZM8.29262 4.84084L12.5308 8.24382V1.34258L8.29262 4.84084ZM6.94351 5.9434C6.76636 6.07952 6.54833 6.1612 6.31667 6.1612C6.085 6.1612 5.86693 6.09313 5.68977 5.9434L4.72224 5.1403L0.0616455 8.89719V8.9108C0.0616455 8.95163 0.0889253 8.97886 0.129808 8.97886H12.4626C12.5035 8.97886 12.5308 8.95163 12.5308 8.9108V8.89719L7.88381 5.16752L6.94351 5.9434Z" fill="white"/>
</svg>
