<svg width="25" height="25" viewBox="0 0 25 25" fill="none" xmlns="http://www.w3.org/2000/svg">
<path d="M21.2677 4.0153C18.9919 1.74211 15.9802 0.489807 12.7641 0.489807C9.54804 0.489807 6.53638 1.74211 4.26059 4.0153C1.98481 6.28849 0.731079 9.29672 0.731079 12.5091C0.731079 15.7215 1.98481 18.7298 4.26059 21.003C6.53638 23.2762 9.54804 24.5149 12.7641 24.5149C15.9802 24.5149 18.9919 23.2626 21.2677 21.003C23.5434 18.7434 24.7835 15.7215 24.7835 12.5091C24.7835 9.31033 23.5298 6.28849 21.2677 4.0153ZM5.95039 20.6491C6.34559 17.2325 9.28912 14.6054 12.7505 14.6054C14.5766 14.6054 16.3073 15.3132 17.6019 16.6063C18.6921 17.6953 19.3871 19.1245 19.5642 20.6491C17.7245 22.1872 15.3397 23.1264 12.7505 23.1264C10.1749 23.1264 7.7901 22.1872 5.95039 20.6491ZM12.7505 13.1489C10.7336 13.1489 9.09834 11.5155 9.09834 9.5009C9.09834 7.48634 10.7336 5.85291 12.7505 5.85291C14.7674 5.85291 16.4027 7.48634 16.4027 9.5009C16.4163 11.5155 14.7674 13.1489 12.7505 13.1489ZM20.7771 19.4648C20.4228 18.022 19.6732 16.688 18.5967 15.6126C17.7381 14.7415 16.7025 14.1017 15.585 13.6934C16.9341 12.7814 17.8199 11.2432 17.8199 9.5009C17.8199 6.71046 15.5441 4.43726 12.7505 4.43726C9.95687 4.43726 7.69471 6.71046 7.69471 9.5009C7.69471 11.2432 8.5805 12.7814 9.92961 13.6934C8.89393 14.0745 7.95363 14.6462 7.13598 15.4085C5.9504 16.511 5.13275 17.9131 4.75118 19.4648C3.12951 17.6 2.16196 15.1771 2.16196 12.5227C2.16196 6.66962 6.91795 1.91906 12.7778 1.91906C18.6376 1.91906 23.3935 6.68323 23.3935 12.5227C23.3799 15.1635 22.3987 17.6 20.7771 19.4648Z" fill="#E62A29"/>
</svg>
