<svg width="25" height="25" viewBox="0 0 25 25" fill="none" xmlns="http://www.w3.org/2000/svg">
<path d="M12.7643 24.0114C9.54821 24.0114 6.53654 22.7591 4.26076 20.4995C1.98497 18.2264 0.744873 15.2181 0.744873 12.0057C0.744873 8.7933 1.9986 5.77145 4.26076 3.51187C6.52291 1.2523 9.54821 0 12.7643 0C15.9804 0 18.992 1.2523 21.2678 3.51187C23.5436 5.77145 24.7973 8.7933 24.7973 12.0057C24.7973 15.2181 23.5436 18.2264 21.2678 20.4995C18.992 22.7591 15.9667 24.0114 12.7643 24.0114ZM12.7643 1.48371C6.95899 1.48371 2.24389 6.19343 2.24389 11.9921C2.24389 17.7908 6.97262 22.5005 12.7643 22.5005C18.5696 22.5005 23.2847 17.7908 23.2847 11.9921C23.2847 6.20705 18.556 1.48371 12.7643 1.48371Z" fill="#E62A29"/>
<path d="M19.5642 10.1L18.3787 6.91487C18.1742 6.37039 17.6564 6.01648 17.084 6.01648H8.63503C8.06268 6.01648 7.54484 6.37039 7.34042 6.91487L6.16846 10.0592L5.67788 10.5084C5.25543 10.8759 5.01013 11.3932 5.01013 11.9513V16.5929C5.01013 17.3552 5.63699 17.9677 6.3865 17.9677H7.25866C8.0218 17.9677 8.63503 17.3552 8.63503 16.5929V15.926H16.8388V16.5929C16.8388 17.3552 17.4656 17.9677 18.2151 17.9677H19.0873C19.8504 17.9677 20.4637 17.3552 20.4637 16.5929V11.8288C20.4637 11.3115 20.2456 10.8215 19.8777 10.454L19.5642 10.1ZM7.96729 7.14627C8.07631 6.86042 8.33523 6.68347 8.63503 6.68347H17.084C17.3839 6.68347 17.6564 6.87403 17.7518 7.14627L18.7875 9.92311H18.0107C17.8336 8.68443 16.6752 7.82686 15.4351 8.01743C14.4539 8.16716 13.6772 8.94305 13.5273 9.92311H6.91797L7.96729 7.14627ZM17.343 9.92311H14.195C14.3722 9.05195 15.2307 8.49385 16.1029 8.68442C16.7297 8.80693 17.2203 9.29696 17.343 9.92311ZM7.99454 16.6066C7.99454 17.0013 7.66748 17.3144 7.27229 17.3144H6.40013C6.00493 17.3144 5.67788 17.0013 5.67788 16.6066V15.7354C5.86866 15.8579 6.14121 15.926 6.40013 15.926H7.99454V16.6066V16.6066ZM19.1145 17.3144H18.2424C17.8472 17.3144 17.5201 17.0013 17.5201 16.6066V15.9396H19.1145C19.3735 15.9396 19.6324 15.8715 19.8368 15.749V16.6202C19.8232 17.0013 19.5097 17.3144 19.1145 17.3144ZM19.8368 14.5648C19.8368 14.9595 19.5097 15.2726 19.1145 15.2726H6.41376C6.01856 15.2726 5.6915 14.9595 5.6915 14.5648V11.9649C5.6915 11.5974 5.85503 11.2571 6.12758 11.0257L6.14121 11.0121L6.59092 10.5901H19.1145L19.428 10.9304C19.428 10.944 19.4416 10.944 19.4416 10.944C19.6869 11.1754 19.8368 11.5021 19.8368 11.8424V14.5648Z" fill="#E62A29"/>
<path d="M9.71171 12.2235C9.71171 12.0465 9.5618 11.8968 9.38465 11.8968H6.90445C6.72729 11.8968 6.57739 12.0465 6.57739 12.2235V13.9386C6.57739 14.1155 6.72729 14.2653 6.90445 14.2653H9.38465C9.5618 14.2653 9.71171 14.1155 9.71171 13.9386V12.2235ZM9.05759 13.6119H7.24514V12.5502H9.05759V13.6119Z" fill="#E62A29"/>
<path d="M18.9374 11.9917C18.9374 11.8148 18.7875 11.665 18.6104 11.665H16.1302C15.953 11.665 15.8031 11.8148 15.8031 11.9917V13.7068C15.8031 13.8838 15.953 14.0335 16.1302 14.0335H18.6104C18.7875 14.0335 18.9374 13.8838 18.9374 13.7068V11.9917ZM18.2833 13.3801H16.4708V12.3184H18.2833V13.3801Z" fill="#E62A29"/>
<path d="M14.3585 13.2852H11.1697C10.9926 13.2852 10.8427 13.4349 10.8427 13.6119C10.8427 13.7889 10.9926 13.9386 11.1697 13.9386H14.3585C14.5357 13.9386 14.6856 13.7889 14.6856 13.6119C14.6856 13.4349 14.5357 13.2852 14.3585 13.2852Z" fill="#E62A29"/>
<path d="M14.3585 12.2643H11.1697C10.9926 12.2643 10.8427 12.4141 10.8427 12.591C10.8427 12.768 10.9926 12.9177 11.1697 12.9177H14.3585C14.5357 12.9177 14.6856 12.768 14.6856 12.591C14.6856 12.4141 14.5357 12.2643 14.3585 12.2643Z" fill="#E62A29"/>
</svg>
