<svg width="13" height="13" viewBox="0 0 13 13" fill="none" xmlns="http://www.w3.org/2000/svg">
<path d="M6.19373 0.768982C2.81412 0.768982 0.088623 3.50498 0.088623 6.86713C0.088623 10.2429 2.82775 12.9653 6.19373 12.9653C9.57333 12.9653 12.2988 10.2293 12.2988 6.86713C12.2988 3.50498 9.57333 0.768982 6.19373 0.768982ZM6.19373 11.8899C3.42736 11.8899 1.17884 9.64395 1.17884 6.88073C1.17884 4.11751 3.42736 1.87154 6.19373 1.87154C8.9601 1.87154 11.2086 4.11751 11.2086 6.88073C11.2086 9.64395 8.9601 11.8899 6.19373 11.8899Z" fill="white"/>
<path d="M3.60459 5.41064H2.35077C2.22811 5.73733 2.14635 6.07762 2.10547 6.43152H3.50918C3.50918 6.07762 3.55007 5.73733 3.60459 5.41064Z" fill="white"/>
<path d="M2.82788 4.51224H3.79544C3.90446 4.13111 4.04075 3.7772 4.19065 3.45052C4.23154 3.36885 4.27243 3.28718 4.32694 3.20551C3.72732 3.51858 3.20946 3.96777 2.82788 4.51224Z" fill="white"/>
<path d="M8.78296 8.35086H10.0366C10.1593 8.02417 10.241 7.68387 10.2819 7.32996H8.87836C8.87836 7.67026 8.83747 8.01056 8.78296 8.35086Z" fill="white"/>
<path d="M8.89228 6.43152H10.2959C10.255 6.07762 10.1732 5.73733 10.0506 5.41064H8.79688C8.83776 5.73733 8.86502 6.07762 8.89228 6.43152Z" fill="white"/>
<path d="M8.19707 10.2973C8.15619 10.379 8.1153 10.4607 8.06079 10.5423C8.66039 10.2429 9.17823 9.79369 9.55979 9.2356H8.59227C8.48325 9.63034 8.34697 9.98425 8.19707 10.2973Z" fill="white"/>
<path d="M8.59227 4.51224H9.55979C9.17823 3.96777 8.66039 3.51858 8.06079 3.20551C8.10167 3.28718 8.14256 3.36885 8.19707 3.45052C8.34697 3.7772 8.48325 4.13111 8.59227 4.51224Z" fill="white"/>
<path d="M3.79544 9.24927H2.82788C3.20946 9.79374 3.72732 10.2429 4.32694 10.556C4.28606 10.4743 4.24518 10.3927 4.2043 10.311C4.04076 9.98431 3.90446 9.6304 3.79544 9.24927Z" fill="white"/>
<path d="M3.49551 7.32996H2.0918C2.13268 7.68387 2.21448 8.02417 2.33714 8.35086H3.59092C3.55003 8.01056 3.50914 7.67026 3.49551 7.32996Z" fill="white"/>
<path d="M6.64331 2.90607V4.51227H7.65166C7.39276 3.72278 7.02485 3.16469 6.64331 2.90607Z" fill="white"/>
<path d="M4.7356 4.51227H5.74401V2.90607C5.36246 3.16469 4.98088 3.72278 4.7356 4.51227Z" fill="white"/>
<path d="M4.50382 8.35086H5.74388V7.32996H4.39478C4.4084 7.68387 4.44931 8.02417 4.50382 8.35086Z" fill="white"/>
<path d="M4.39478 6.43152H5.74388V5.41064H4.50382C4.44931 5.72371 4.4084 6.06401 4.39478 6.43152Z" fill="white"/>
<path d="M6.64331 5.41064V6.43152H7.9923C7.97867 6.06401 7.93777 5.72371 7.88326 5.41064H6.64331Z" fill="white"/>
<path d="M6.64331 8.35086H7.88326C7.93777 8.03778 7.97867 7.68387 7.9923 7.32996H6.64331V8.35086Z" fill="white"/>
<path d="M5.74395 10.8418V9.2356H4.72192C4.98084 10.0251 5.34877 10.5968 5.74395 10.8418Z" fill="white"/>
<path d="M6.64331 10.8418C7.02485 10.5832 7.40638 10.0251 7.65166 9.2356H6.64331V10.8418Z" fill="white"/>
</svg>
